<svg xmlns="http://www.w3.org/2000/svg" width="1536" height="1536" viewBox="0 0 1536 1536" role="img" aria-label="شعار المطور Hzifa33 بألوان رَفّ">
  <defs>
    <linearGradient id="logoGradient" x1="0" y1="0" x2="1536" y2="0" gradientUnits="userSpaceOnUse">
      <stop offset="0%" stop-color="#E2C17C"/>
      <stop offset="50%" stop-color="#C99A45"/>
      <stop offset="100%" stop-color="#9A6B2D"/>
    </linearGradient>
  </defs>
  <path d="M 405.886 0 L 403.233 2.324 L 400.58 2.324 L 397.927 2.324 L 395.275 2.324 L 392.622 4.648 L 389.969 4.648 L 387.316 4.648 L 384.663 4.648 L 382.01 4.648 L 379.358 6.971 L 376.705 6.971 L 374.052 9.295 L 371.399 9.295 L 368.746 11.619 L 366.093 11.619 L 363.44 13.943 L 360.788 13.943 L 358.135 16.266 L 355.482 18.59 L 352.829 18.59 L 350.176 20.914 L 347.523 20.914 L 344.87 23.238 L 342.218 23.238 L 339.565 25.561 L 336.912 27.885 L 334.259 27.885 L 331.606 30.209 L 328.953 30.209 L 326.301 32.533 L 323.648 34.856 L 320.995 34.856 L 318.342 37.18 L 315.689 37.18 L 313.036 39.504 L 310.383 41.828 L 307.731 41.828 L 305.078 44.151 L 302.425 44.151 L 299.772 46.475 L 297.119 48.799 L 294.466 48.799 L 291.813 51.123 L 289.161 51.123 L 286.508 53.446 L 283.855 55.77 L 281.202 55.77 L 278.549 58.094 L 275.896 58.094 L 273.244 60.418 L 270.591 62.741 L 267.938 62.741 L 265.285 65.065 L 262.632 65.065 L 259.979 67.389 L 257.326 69.713 L 254.674 69.713 L 252.021 72.036 L 249.368 72.036 L 246.715 74.36 L 244.062 76.684 L 241.409 76.684 L 238.756 79.008 L 236.104 79.008 L 233.451 81.331 L 230.798 81.331 L 228.145 83.655 L 225.492 83.655 L 222.839 85.979 L 220.187 88.303 L 217.534 88.303 L 214.881 90.626 L 212.228 92.95 L 209.575 92.95 L 206.922 95.274 L 204.269 95.274 L 201.617 97.598 L 198.964 99.921 L 196.311 99.921 L 193.658 102.245 L 191.005 104.569 L 188.352 104.569 L 185.699 106.893 L 183.047 106.893 L 180.394 109.216 L 177.741 109.216 L 175.088 111.54 L 172.435 113.864 L 169.782 113.864 L 167.13 116.188 L 164.477 116.188 L 161.824 118.511 L 159.171 120.835 L 156.518 120.835 L 153.865 123.159 L 151.212 123.159 L 148.56 125.483 L 145.907 127.806 L 143.254 127.806 L 140.601 130.13 L 137.948 130.13 L 135.295 132.454 L 132.642 134.778 L 129.99 134.778 L 127.337 137.101 L 124.684 139.425 L 122.031 139.425 L 119.378 139.425 L 116.725 141.749 L 114.073 144.073 L 111.42 144.073 L 108.767 146.396 L 106.114 148.72 L 103.461 148.72 L 100.808 151.044 L 98.155 151.044 L 95.503 153.368 L 92.85 155.691 L 90.197 155.691 L 87.544 158.015 L 84.891 158.015 L 82.238 160.339 L 79.585 160.339 L 76.933 162.663 L 74.28 164.986 L 71.627 164.986 L 68.974 167.31 L 66.321 167.31 L 63.668 169.634 L 61.016 171.958 L 58.363 174.281 L 55.71 176.605 L 53.057 176.605 L 50.404 178.929 L 47.751 181.253 L 45.098 183.576 L 42.446 185.9 L 39.793 188.224 L 39.793 190.548 L 37.14 192.871 L 34.487 195.195 L 31.834 197.519 L 29.181 199.843 L 29.181 202.166 L 26.528 204.49 L 23.876 206.814 L 23.876 209.138 L 21.223 211.461 L 21.223 213.785 L 18.57 216.109 L 18.57 218.433 L 15.917 220.756 L 15.917 223.08 L 13.264 225.404 L 13.264 227.728 L 10.611 230.051 L 10.611 232.375 L 7.959 234.699 L 7.959 237.023 L 7.959 239.346 L 5.306 241.67 L 5.306 243.994 L 5.306 246.318 L 2.653 248.641 L 2.653 250.965 L 2.653 253.289 L 2.653 255.613 L 2.653 257.936 L 2.653 260.26 L 2.653 262.584 L 0 264.908 L 0 267.231 L 0 269.555 L 0 271.879 L 0 274.203 L 0 276.526 L 0 278.85 L 0 281.174 L 0 283.498 L 0 285.821 L 0 288.145 L 0 290.469 L 0 292.793 L 0 295.116 L 0 297.44 L 0 299.764 L 0 302.088 L 0 304.411 L 0 306.735 L 0 309.059 L 0 311.383 L 0 313.707 L 0 316.03 L 0 318.354 L 0 320.678 L 0 323.002 L 0 325.325 L 0 327.649 L 0 329.973 L 0 332.297 L 0 334.62 L 0 336.944 L 0 339.268 L 0 341.592 L 0 343.915 L 0 346.239 L 0 348.563 L 0 350.887 L 0 353.21 L 0 355.534 L 0 357.858 L 0 360.182 L 0 362.505 L 0 364.829 L 0 367.153 L 0 369.477 L 0 371.8 L 0 374.124 L 0 376.448 L 0 378.772 L 0 381.095 L 0 383.419 L 0 385.743 L 0 388.067 L 0 390.39 L 0 392.714 L 0 395.038 L 0 397.362 L 0 399.685 L 0 402.009 L 0 404.333 L 0 406.657 L 0 408.98 L 0 411.304 L 0 413.628 L 0 415.952 L 0 418.275 L 0 420.599 L 0 422.923 L 0 425.247 L 0 427.57 L 0 429.894 L 0 432.218 L 0 434.542 L 0 436.865 L 0 439.189 L 0 441.513 L 0 443.837 L 0 446.16 L 0 448.484 L 0 450.808 L 0 453.132 L 0 455.455 L 0 457.779 L 0 460.103 L 0 462.427 L 0 464.75 L 0 467.074 L 0 469.398 L 0 471.722 L 0 474.045 L 0 476.369 L 0 478.693 L 0 481.017 L 0 483.34 L 0 485.664 L 0 487.988 L 0 490.312 L 0 492.635 L 0 494.959 L 0 497.283 L 0 499.607 L 0 501.93 L 0 504.254 L 0 506.578 L 0 508.902 L 0 511.225 L 0 513.549 L 0 515.873 L 0 518.197 L 0 520.52 L 0 522.844 L 0 525.168 L 0 527.492 L 0 529.815 L 0 532.139 L 0 534.463 L 0 536.787 L 0 539.11 L 0 541.434 L 0 543.758 L 0 546.082 L 0 548.405 L 0 550.729 L 0 553.053 L 0 555.377 L 0 557.7 L 0 560.024 L 0 562.348 L 0 564.672 L 0 566.995 L 0 569.319 L 0 571.643 L 0 573.967 L 0 576.29 L 0 578.614 L 0 580.938 L 0 583.262 L 0 585.585 L 0 587.909 L 0 590.233 L 0 592.557 L 0 594.88 L 0 597.204 L 0 599.528 L 0 601.852 L 0 604.175 L 0 606.499 L 0 608.823 L 0 611.147 L 0 613.47 L 0 615.794 L 0 618.118 L 0 620.442 L 0 622.766 L 0 625.089 L 0 627.413 L 0 629.737 L 0 632.061 L 0 634.384 L 0 636.708 L 0 639.032 L 0 641.356 L 0 643.679 L 0 646.003 L 0 648.327 L 0 650.651 L 0 652.974 L 0 655.298 L 0 657.622 L 0 659.946 L 0 662.269 L 0 664.593 L 0 666.917 L 0 669.241 L 0 671.564 L 0 673.888 L 0 676.212 L 0 678.536 L 0 680.859 L 0 683.183 L 0 685.507 L 0 687.831 L 0 690.154 L 0 692.478 L 0 694.802 L 0 697.126 L 0 699.449 L 0 701.773 L 0 704.097 L 0 706.421 L 0 708.744 L 0 711.068 L 0 713.392 L 0 715.716 L 0 718.039 L 0 720.363 L 0 722.687 L 0 725.011 L 0 727.334 L 0 729.658 L 0 731.982 L 0 734.306 L 0 736.629 L 0 738.953 L 0 741.277 L 0 743.601 L 0 745.924 L 0 748.248 L 0 750.572 L 0 752.896 L 0 755.219 L 0 757.543 L 0 759.867 L 0 762.191 L 0 764.514 L 0 766.838 L 0 769.162 L 0 771.486 L 0 773.809 L 0 776.133 L 0 778.457 L 0 780.781 L 0 783.104 L 0 785.428 L 0 787.752 L 0 790.076 L 0 792.399 L 0 794.723 L 0 797.047 L 0 799.371 L 0 801.694 L 0 804.018 L 0 806.342 L 0 808.666 L 0 810.989 L 0 813.313 L 0 815.637 L 0 817.961 L 0 820.284 L 0 822.608 L 0 824.932 L 0 827.256 L 0 829.579 L 0 831.903 L 0 834.227 L 0 836.551 L 0 838.874 L 0 841.198 L 0 843.522 L 0 845.846 L 0 848.169 L 0 850.493 L 0 852.817 L 0 855.141 L 0 857.464 L 0 859.788 L 0 862.112 L 0 864.436 L 0 866.759 L 0 869.083 L 0 871.407 L 0 873.731 L 0 876.054 L 0 878.378 L 0 880.702 L 0 883.026 L 0 885.349 L 0 887.673 L 0 889.997 L 0 892.321 L 0 894.644 L 0 896.968 L 0 899.292 L 0 901.616 L 0 903.939 L 0 906.263 L 0 908.587 L 0 910.911 L 0 913.234 L 0 915.558 L 0 917.882 L 0 920.206 L 0 922.53 L 0 924.853 L 0 927.177 L 0 929.501 L 0 931.825 L 0 934.148 L 0 936.472 L 0 938.796 L 0 941.12 L 0 943.443 L 0 945.767 L 0 948.091 L 0 950.415 L 0 952.738 L 0 955.062 L 0 957.386 L 0 959.71 L 0 962.033 L 0 964.357 L 0 966.681 L 0 969.005 L 0 971.328 L 0 973.652 L 0 975.976 L 0 978.3 L 0 980.623 L 0 982.947 L 0 985.271 L 0 987.595 L 0 989.918 L 0 992.242 L 0 994.566 L 0 996.89 L 0 999.213 L 0 1001.537 L 0 1003.861 L 0 1006.185 L 0 1008.508 L 0 1010.832 L 0 1013.156 L 0 1015.48 L 0 1017.803 L 0 1020.127 L 0 1022.451 L 0 1024.775 L 0 1027.098 L 0 1029.422 L 0 1031.746 L 0 1034.07 L 0 1036.393 L 0 1038.717 L 0 1041.041 L 0 1043.365 L 0 1045.688 L 0 1048.012 L 0 1050.336 L 0 1052.66 L 0 1054.983 L 0 1057.307 L 0 1059.631 L 0 1061.955 L 0 1064.278 L 0 1066.602 L 0 1068.926 L 0 1071.25 L 0 1073.573 L 0 1075.897 L 0 1078.221 L 0 1080.545 L 0 1082.868 L 0 1085.192 L 0 1087.516 L 0 1089.84 L 0 1092.163 L 0 1094.487 L 0 1096.811 L 0 1099.135 L 0 1101.458 L 0 1103.782 L 0 1106.106 L 0 1108.43 L 0 1110.753 L 0 1113.077 L 0 1115.401 L 0 1117.725 L 0 1120.048 L 0 1122.372 L 0 1124.696 L 0 1127.02 L 0 1129.343 L 0 1131.667 L 0 1133.991 L 0 1136.315 L 0 1138.638 L 0 1140.962 L 0 1143.286 L 0 1145.61 L 0 1147.933 L 0 1150.257 L 0 1152.581 L 0 1154.905 L 0 1157.228 L 0 1159.552 L 0 1161.876 L 0 1164.2 L 0 1166.523 L 0 1168.847 L 0 1171.171 L 0 1173.495 L 0 1175.818 L 0 1178.142 L 0 1180.466 L 0 1182.79 L 0 1185.113 L 0 1187.437 L 0 1189.761 L 0 1192.085 L 0 1194.408 L 0 1196.732 L 0 1199.056 L 0 1201.38 L 0 1203.703 L 0 1206.027 L 0 1208.351 L 0 1210.675 L 0 1212.998 L 0 1215.322 L 0 1217.646 L 0 1219.97 L 0 1222.293 L 0 1224.617 L 0 1226.941 L 0 1229.265 L 0 1231.589 L 0 1233.912 L 0 1236.236 L 0 1238.56 L 0 1240.884 L 0 1243.207 L 0 1245.531 L 0 1247.855 L 0 1250.179 L 0 1252.502 L 0 1254.826 L 0 1257.15 L 0 1259.474 L 0 1261.797 L 0 1264.121 L 0 1266.445 L 0 1268.769 L 0 1271.092 L 0 1273.416 L 2.653 1275.74 L 2.653 1278.064 L 2.653 1280.387 L 2.653 1282.711 L 2.653 1285.035 L 2.653 1287.359 L 5.306 1289.682 L 5.306 1292.006 L 5.306 1294.33 L 7.959 1296.654 L 7.959 1298.977 L 7.959 1301.301 L 10.611 1303.625 L 10.611 1305.949 L 10.611 1308.272 L 13.264 1310.596 L 13.264 1312.92 L 15.917 1315.244 L 15.917 1317.567 L 18.57 1319.891 L 18.57 1322.215 L 21.223 1324.539 L 21.223 1326.862 L 23.876 1329.186 L 26.528 1331.51 L 29.181 1333.834 L 29.181 1336.157 L 31.834 1338.481 L 34.487 1340.805 L 34.487 1343.129 L 37.14 1345.452 L 39.793 1347.776 L 42.446 1350.1 L 45.098 1352.424 L 47.751 1354.747 L 50.404 1357.071 L 53.057 1359.395 L 55.71 1361.719 L 58.363 1361.719 L 61.016 1364.042 L 63.668 1366.366 L 66.321 1368.69 L 68.974 1368.69 L 71.627 1371.014 L 74.28 1371.014 L 76.933 1373.337 L 79.585 1375.661 L 82.238 1375.661 L 84.891 1377.985 L 87.544 1377.985 L 90.197 1380.309 L 92.85 1382.632 L 95.503 1382.632 L 98.155 1384.956 L 100.808 1384.956 L 103.461 1387.28 L 106.114 1389.604 L 108.767 1389.604 L 111.42 1391.927 L 114.073 1391.927 L 116.725 1394.251 L 119.378 1396.575 L 122.031 1396.575 L 124.684 1398.899 L 127.337 1398.899 L 129.99 1401.222 L 132.642 1401.222 L 135.295 1403.546 L 137.948 1405.87 L 140.601 1405.87 L 143.254 1408.194 L 145.907 1410.517 L 148.56 1410.517 L 151.212 1412.841 L 153.865 1412.841 L 156.518 1415.165 L 159.171 1417.489 L 161.824 1417.489 L 164.477 1419.812 L 167.13 1419.812 L 169.782 1422.136 L 172.435 1424.46 L 175.088 1424.46 L 177.741 1426.784 L 180.394 1426.784 L 183.047 1429.107 L 185.699 1431.431 L 188.352 1431.431 L 191.005 1433.755 L 193.658 1433.755 L 196.311 1436.079 L 198.964 1438.402 L 201.617 1438.402 L 204.269 1440.726 L 206.922 1440.726 L 209.575 1443.05 L 212.228 1445.374 L 214.881 1445.374 L 217.534 1447.697 L 220.187 1447.697 L 222.839 1450.021 L 225.492 1450.021 L 228.145 1452.345 L 230.798 1454.669 L 233.451 1454.669 L 236.104 1456.992 L 238.756 1456.992 L 241.409 1459.316 L 244.062 1461.64 L 246.715 1461.64 L 249.368 1463.964 L 252.021 1463.964 L 254.674 1466.287 L 257.326 1468.611 L 259.979 1468.611 L 262.632 1470.935 L 265.285 1470.935 L 267.938 1473.259 L 270.591 1475.582 L 273.244 1475.582 L 275.896 1477.906 L 278.549 1480.23 L 281.202 1480.23 L 283.855 1482.554 L 286.508 1482.554 L 289.161 1484.877 L 291.813 1484.877 L 294.466 1487.201 L 297.119 1487.201 L 299.772 1489.525 L 302.425 1491.849 L 305.078 1491.849 L 307.731 1494.172 L 310.383 1496.496 L 313.036 1496.496 L 315.689 1498.82 L 318.342 1498.82 L 320.995 1501.144 L 323.648 1503.467 L 326.301 1503.467 L 328.953 1505.791 L 331.606 1505.791 L 334.259 1508.115 L 336.912 1508.115 L 339.565 1510.439 L 342.218 1512.762 L 344.87 1512.762 L 347.523 1515.086 L 350.176 1515.086 L 352.829 1517.41 L 355.482 1519.734 L 358.135 1519.734 L 360.788 1522.057 L 363.44 1522.057 L 366.093 1524.381 L 368.746 1526.705 L 371.399 1526.705 L 374.052 1526.705 L 376.705 1529.029 L 379.358 1529.029 L 382.01 1531.352 L 384.663 1531.352 L 387.316 1531.352 L 389.969 1533.676 L 392.622 1533.676 L 395.275 1533.676 L 397.927 1533.676 L 400.58 1533.676 L 403.233 1536 L 405.886 1536 L 408.539 1536 L 411.192 1536 L 413.845 1536 L 416.497 1536 L 419.15 1536 L 421.803 1536 L 424.456 1536 L 427.109 1536 L 429.762 1536 L 432.415 1536 L 435.067 1536 L 437.72 1536 L 440.373 1536 L 443.026 1536 L 445.679 1536 L 448.332 1533.676 L 450.984 1533.676 L 453.637 1533.676 L 456.29 1531.352 L 458.943 1531.352 L 461.596 1531.352 L 464.249 1529.029 L 466.902 1529.029 L 469.554 1529.029 L 472.207 1526.705 L 474.86 1526.705 L 477.513 1524.381 L 480.166 1524.381 L 482.819 1522.057 L 485.472 1522.057 L 488.124 1519.734 L 490.777 1517.41 L 493.43 1515.086 L 496.083 1512.762 L 498.736 1512.762 L 501.389 1510.439 L 504.041 1508.115 L 506.694 1505.791 L 506.694 1503.467 L 509.347 1501.144 L 512 1498.82 L 514.653 1496.496 L 514.653 1494.172 L 517.306 1491.849 L 519.959 1489.525 L 519.959 1487.201 L 522.611 1484.877 L 522.611 1482.554 L 525.264 1480.23 L 525.264 1477.906 L 527.917 1475.582 L 527.917 1473.259 L 527.917 1470.935 L 530.57 1468.611 L 530.57 1466.287 L 530.57 1463.964 L 530.57 1461.64 L 530.57 1459.316 L 533.223 1456.992 L 533.223 1454.669 L 533.223 1452.345 L 533.223 1450.021 L 533.223 1447.697 L 533.223 1445.374 L 533.223 1443.05 L 533.223 1440.726 L 533.223 1438.402 L 533.223 1436.079 L 533.223 1433.755 L 533.223 1431.431 L 533.223 1429.107 L 533.223 1426.784 L 533.223 1424.46 L 533.223 1422.136 L 533.223 1419.812 L 533.223 1417.489 L 533.223 1415.165 L 533.223 1412.841 L 533.223 1410.517 L 533.223 1408.194 L 533.223 1405.87 L 533.223 1403.546 L 533.223 1401.222 L 533.223 1398.899 L 533.223 1396.575 L 533.223 1394.251 L 533.223 1391.927 L 533.223 1389.604 L 533.223 1387.28 L 533.223 1384.956 L 533.223 1382.632 L 533.223 1380.309 L 533.223 1377.985 L 533.223 1375.661 L 533.223 1373.337 L 533.223 1371.014 L 533.223 1368.69 L 533.223 1366.366 L 533.223 1364.042 L 533.223 1361.719 L 533.223 1359.395 L 533.223 1357.071 L 533.223 1354.747 L 533.223 1352.424 L 533.223 1350.1 L 533.223 1347.776 L 533.223 1345.452 L 533.223 1343.129 L 533.223 1340.805 L 533.223 1338.481 L 533.223 1336.157 L 533.223 1333.834 L 533.223 1331.51 L 533.223 1329.186 L 533.223 1326.862 L 533.223 1324.539 L 533.223 1322.215 L 533.223 1319.891 L 533.223 1317.567 L 533.223 1315.244 L 533.223 1312.92 L 533.223 1310.596 L 533.223 1308.272 L 533.223 1305.949 L 533.223 1303.625 L 533.223 1301.301 L 533.223 1298.977 L 533.223 1296.654 L 533.223 1294.33 L 533.223 1292.006 L 533.223 1289.682 L 533.223 1287.359 L 533.223 1285.035 L 533.223 1282.711 L 533.223 1280.387 L 533.223 1278.064 L 533.223 1275.74 L 533.223 1273.416 L 533.223 1271.092 L 533.223 1268.769 L 533.223 1266.445 L 533.223 1264.121 L 533.223 1261.797 L 533.223 1259.474 L 533.223 1257.15 L 533.223 1254.826 L 533.223 1252.502 L 533.223 1250.179 L 533.223 1247.855 L 533.223 1245.531 L 533.223 1243.207 L 533.223 1240.884 L 533.223 1238.56 L 533.223 1236.236 L 533.223 1233.912 L 533.223 1231.589 L 533.223 1229.265 L 533.223 1226.941 L 533.223 1224.617 L 533.223 1222.293 L 533.223 1219.97 L 533.223 1217.646 L 533.223 1215.322 L 533.223 1212.998 L 533.223 1210.675 L 533.223 1208.351 L 533.223 1206.027 L 533.223 1203.703 L 533.223 1201.38 L 533.223 1199.056 L 533.223 1196.732 L 533.223 1194.408 L 533.223 1192.085 L 533.223 1189.761 L 533.223 1187.437 L 533.223 1185.113 L 533.223 1182.79 L 533.223 1180.466 L 533.223 1178.142 L 533.223 1175.818 L 533.223 1173.495 L 533.223 1171.171 L 533.223 1168.847 L 533.223 1166.523 L 533.223 1164.2 L 533.223 1161.876 L 533.223 1159.552 L 533.223 1157.228 L 533.223 1154.905 L 533.223 1152.581 L 533.223 1150.257 L 533.223 1147.933 L 533.223 1145.61 L 533.223 1143.286 L 533.223 1140.962 L 533.223 1138.638 L 533.223 1136.315 L 533.223 1133.991 L 533.223 1131.667 L 533.223 1129.343 L 533.223 1127.02 L 533.223 1124.696 L 533.223 1122.372 L 533.223 1120.048 L 533.223 1117.725 L 533.223 1115.401 L 533.223 1113.077 L 533.223 1110.753 L 533.223 1108.43 L 533.223 1106.106 L 533.223 1103.782 L 533.223 1101.458 L 533.223 1099.135 L 533.223 1096.811 L 533.223 1094.487 L 533.223 1092.163 L 533.223 1089.84 L 533.223 1087.516 L 533.223 1085.192 L 533.223 1082.868 L 533.223 1080.545 L 533.223 1078.221 L 533.223 1075.897 L 533.223 1073.573 L 533.223 1071.25 L 533.223 1068.926 L 533.223 1066.602 L 533.223 1064.278 L 533.223 1061.955 L 533.223 1059.631 L 533.223 1057.307 L 533.223 1054.983 L 533.223 1052.66 L 533.223 1050.336 L 533.223 1048.012 L 533.223 1045.688 L 533.223 1043.365 L 533.223 1041.041 L 533.223 1038.717 L 533.223 1036.393 L 533.223 1034.07 L 533.223 1031.746 L 533.223 1029.422 L 533.223 1027.098 L 533.223 1024.775 L 535.876 1022.451 L 535.876 1020.127 L 535.876 1017.803 L 535.876 1015.48 L 538.528 1013.156 L 538.528 1010.832 L 538.528 1008.508 L 541.181 1006.185 L 541.181 1003.861 L 543.834 1001.537 L 543.834 999.213 L 543.834 996.89 L 546.487 994.566 L 549.14 992.242 L 551.793 989.918 L 551.793 987.595 L 554.446 985.271 L 557.098 982.947 L 559.751 980.623 L 562.404 978.3 L 565.057 975.976 L 567.71 973.652 L 570.363 971.328 L 573.016 969.005 L 575.668 969.005 L 578.321 966.681 L 580.974 966.681 L 583.627 964.357 L 586.28 964.357 L 588.933 962.033 L 591.585 959.71 L 594.238 959.71 L 596.891 957.386 L 599.544 955.062 L 602.197 955.062 L 604.85 952.738 L 607.503 952.738 L 610.155 950.415 L 612.808 950.415 L 615.461 948.091 L 618.114 945.767 L 620.767 945.767 L 623.42 943.443 L 626.073 943.443 L 628.725 941.12 L 631.378 938.796 L 634.031 938.796 L 636.684 936.472 L 639.337 936.472 L 641.99 934.148 L 644.642 931.825 L 647.295 931.825 L 649.948 929.501 L 652.601 929.501 L 655.254 927.177 L 657.907 927.177 L 660.56 924.853 L 663.212 922.53 L 665.865 922.53 L 668.518 920.206 L 671.171 917.882 L 673.824 917.882 L 676.477 915.558 L 679.13 915.558 L 681.782 913.234 L 684.435 910.911 L 687.088 910.911 L 689.741 908.587 L 692.394 908.587 L 695.047 906.263 L 697.699 903.939 L 700.352 903.939 L 703.005 901.616 L 705.658 901.616 L 708.311 899.292 L 710.964 899.292 L 713.617 896.968 L 716.269 894.644 L 718.922 894.644 L 721.575 892.321 L 724.228 889.997 L 726.881 889.997 L 729.534 887.673 L 732.187 887.673 L 734.839 885.349 L 737.492 883.026 L 740.145 883.026 L 742.798 880.702 L 745.451 878.378 L 748.104 878.378 L 750.756 876.054 L 753.409 876.054 L 756.062 873.731 L 758.715 873.731 L 761.368 871.407 L 764.021 869.083 L 766.674 869.083 L 769.326 866.759 L 771.979 866.759 L 774.632 864.436 L 777.285 862.112 L 779.938 862.112 L 782.591 859.788 L 785.244 859.788 L 787.896 857.464 L 790.549 855.141 L 793.202 855.141 L 795.855 852.817 L 798.508 852.817 L 801.161 850.493 L 803.813 848.169 L 806.466 848.169 L 809.119 845.846 L 811.772 843.522 L 814.425 843.522 L 817.078 843.522 L 819.731 841.198 L 822.383 838.874 L 825.036 838.874 L 827.689 836.551 L 830.342 834.227 L 832.995 834.227 L 835.648 831.903 L 838.301 831.903 L 840.953 829.579 L 843.606 829.579 L 846.259 827.256 L 848.912 824.932 L 851.565 824.932 L 854.218 822.608 L 856.87 822.608 L 859.523 820.284 L 862.176 817.961 L 864.829 817.961 L 867.482 815.637 L 870.135 815.637 L 872.788 813.313 L 875.44 810.989 L 878.093 810.989 L 880.746 808.666 L 883.399 806.342 L 886.052 806.342 L 888.705 804.018 L 891.358 804.018 L 894.01 801.694 L 896.663 801.694 L 899.316 799.371 L 901.969 797.047 L 904.622 797.047 L 907.275 794.723 L 909.927 794.723 L 912.58 792.399 L 915.233 790.076 L 917.886 790.076 L 920.539 787.752 L 923.192 787.752 L 925.845 785.428 L 928.497 783.104 L 931.15 783.104 L 933.803 780.781 L 936.456 778.457 L 939.109 778.457 L 941.762 776.133 L 944.415 776.133 L 947.067 773.809 L 949.72 771.486 L 952.373 771.486 L 955.026 769.162 L 957.679 766.838 L 960.332 766.838 L 962.984 764.514 L 965.637 764.514 L 968.29 762.191 L 970.943 762.191 L 973.596 759.867 L 976.249 757.543 L 978.902 757.543 L 981.554 755.219 L 984.207 755.219 L 986.86 752.896 L 989.513 750.572 L 992.166 750.572 L 994.819 748.248 L 997.472 748.248 L 1000.124 745.924 L 1002.777 743.601 L 1005.43 743.601 L 1008.083 741.277 L 1010.736 741.277 L 1013.389 738.953 L 1016.041 736.629 L 1018.694 736.629 L 1021.347 734.306 L 1024 731.982 L 1026.653 731.982 L 1029.306 729.658 L 1031.959 729.658 L 1034.611 727.334 L 1037.264 727.334 L 1039.917 725.011 L 1042.57 722.687 L 1045.223 722.687 L 1047.876 720.363 L 1050.528 718.039 L 1053.181 718.039 L 1055.834 715.716 L 1058.487 715.716 L 1061.14 713.392 L 1063.793 713.392 L 1066.446 711.068 L 1069.098 711.068 L 1071.751 708.744 L 1074.404 706.421 L 1077.057 706.421 L 1079.71 704.097 L 1082.363 704.097 L 1085.016 701.773 L 1087.668 699.449 L 1090.321 699.449 L 1092.974 697.126 L 1095.627 694.802 L 1098.28 694.802 L 1100.933 692.478 L 1103.585 690.154 L 1106.238 690.154 L 1108.891 687.831 L 1111.544 685.507 L 1114.197 685.507 L 1116.85 683.183 L 1119.503 680.859 L 1122.155 678.536 L 1124.808 676.212 L 1127.461 673.888 L 1130.114 671.564 L 1130.114 669.241 L 1132.767 666.917 L 1135.42 664.593 L 1138.073 662.269 L 1138.073 659.946 L 1140.725 657.622 L 1140.725 655.298 L 1143.378 652.974 L 1143.378 650.651 L 1146.031 648.327 L 1146.031 646.003 L 1148.684 643.679 L 1148.684 641.356 L 1148.684 639.032 L 1151.337 636.708 L 1151.337 634.384 L 1151.337 632.061 L 1151.337 629.737 L 1153.99 627.413 L 1153.99 625.089 L 1153.99 622.766 L 1153.99 620.442 L 1153.99 618.118 L 1153.99 615.794 L 1153.99 613.47 L 1153.99 611.147 L 1153.99 608.823 L 1153.99 606.499 L 1153.99 604.175 L 1153.99 601.852 L 1153.99 599.528 L 1153.99 597.204 L 1153.99 594.88 L 1153.99 592.557 L 1153.99 590.233 L 1153.99 587.909 L 1153.99 585.585 L 1153.99 583.262 L 1153.99 580.938 L 1153.99 578.614 L 1153.99 576.29 L 1153.99 573.967 L 1153.99 571.643 L 1153.99 569.319 L 1153.99 566.995 L 1153.99 564.672 L 1153.99 562.348 L 1153.99 560.024 L 1153.99 557.7 L 1153.99 555.377 L 1153.99 553.053 L 1153.99 550.729 L 1153.99 548.405 L 1153.99 546.082 L 1153.99 543.758 L 1153.99 541.434 L 1153.99 539.11 L 1153.99 536.787 L 1153.99 534.463 L 1153.99 532.139 L 1153.99 529.815 L 1153.99 527.492 L 1153.99 525.168 L 1153.99 522.844 L 1153.99 520.52 L 1153.99 518.197 L 1153.99 515.873 L 1153.99 513.549 L 1153.99 511.225 L 1153.99 508.902 L 1153.99 506.578 L 1153.99 504.254 L 1153.99 501.93 L 1153.99 499.607 L 1153.99 497.283 L 1153.99 494.959 L 1153.99 492.635 L 1153.99 490.312 L 1153.99 487.988 L 1153.99 485.664 L 1153.99 483.34 L 1153.99 481.017 L 1153.99 478.693 L 1153.99 476.369 L 1153.99 474.045 L 1153.99 471.722 L 1153.99 469.398 L 1153.99 467.074 L 1153.99 464.75 L 1153.99 462.427 L 1153.99 460.103 L 1153.99 457.779 L 1153.99 455.455 L 1153.99 453.132 L 1153.99 450.808 L 1153.99 448.484 L 1153.99 446.16 L 1153.99 443.837 L 1153.99 441.513 L 1153.99 439.189 L 1153.99 436.865 L 1153.99 434.542 L 1153.99 432.218 L 1153.99 429.894 L 1153.99 427.57 L 1153.99 425.247 L 1153.99 422.923 L 1153.99 420.599 L 1153.99 418.275 L 1153.99 415.952 L 1153.99 413.628 L 1153.99 411.304 L 1153.99 408.98 L 1153.99 406.657 L 1153.99 404.333 L 1153.99 402.009 L 1153.99 399.685 L 1153.99 397.362 L 1153.99 395.038 L 1153.99 392.714 L 1153.99 390.39 L 1153.99 388.067 L 1153.99 385.743 L 1153.99 383.419 L 1153.99 381.095 L 1153.99 378.772 L 1153.99 376.448 L 1153.99 374.124 L 1153.99 371.8 L 1153.99 369.477 L 1153.99 367.153 L 1153.99 364.829 L 1153.99 362.505 L 1153.99 360.182 L 1153.99 357.858 L 1153.99 355.534 L 1153.99 353.21 L 1153.99 350.887 L 1153.99 348.563 L 1153.99 346.239 L 1153.99 343.915 L 1153.99 341.592 L 1153.99 339.268 L 1153.99 336.944 L 1153.99 334.62 L 1153.99 332.297 L 1153.99 329.973 L 1153.99 327.649 L 1153.99 325.325 L 1153.99 323.002 L 1153.99 320.678 L 1153.99 318.354 L 1153.99 316.03 L 1153.99 313.707 L 1153.99 311.383 L 1153.99 309.059 L 1153.99 306.735 L 1153.99 304.411 L 1153.99 302.088 L 1153.99 299.764 L 1153.99 297.44 L 1153.99 295.116 L 1153.99 292.793 L 1153.99 290.469 L 1153.99 288.145 L 1153.99 285.821 L 1153.99 283.498 L 1156.642 281.174 L 1156.642 278.85 L 1156.642 276.526 L 1156.642 274.203 L 1156.642 271.879 L 1156.642 269.555 L 1156.642 267.231 L 1159.295 264.908 L 1159.295 262.584 L 1161.948 260.26 L 1164.601 257.936 L 1167.254 255.613 L 1169.907 253.289 L 1172.56 250.965 L 1175.212 250.965 L 1177.865 248.641 L 1180.518 248.641 L 1183.171 248.641 L 1185.824 248.641 L 1188.477 248.641 L 1191.13 248.641 L 1193.782 248.641 L 1196.435 248.641 L 1199.088 248.641 L 1201.741 250.965 L 1204.394 250.965 L 1207.047 253.289 L 1209.699 253.289 L 1212.352 255.613 L 1215.005 257.936 L 1217.658 257.936 L 1220.311 260.26 L 1222.964 260.26 L 1225.617 262.584 L 1228.269 262.584 L 1230.922 264.908 L 1233.575 267.231 L 1236.228 267.231 L 1238.881 269.555 L 1241.534 271.879 L 1244.187 271.879 L 1246.839 274.203 L 1249.492 274.203 L 1252.145 276.526 L 1254.798 276.526 L 1257.451 278.85 L 1260.104 281.174 L 1262.756 281.174 L 1265.409 283.498 L 1268.062 285.821 L 1270.715 285.821 L 1273.368 288.145 L 1276.021 290.469 L 1278.674 292.793 L 1281.326 295.116 L 1283.979 297.44 L 1286.632 299.764 L 1286.632 302.088 L 1289.285 304.411 L 1291.938 306.735 L 1294.591 309.059 L 1297.244 311.383 L 1297.244 313.707 L 1299.896 316.03 L 1299.896 318.354 L 1302.549 320.678 L 1302.549 323.002 L 1305.202 325.325 L 1305.202 327.649 L 1305.202 329.973 L 1307.855 332.297 L 1307.855 334.62 L 1307.855 336.944 L 1307.855 339.268 L 1310.508 341.592 L 1310.508 343.915 L 1310.508 346.239 L 1310.508 348.563 L 1310.508 350.887 L 1310.508 353.21 L 1310.508 355.534 L 1310.508 357.858 L 1310.508 360.182 L 1310.508 362.505 L 1310.508 364.829 L 1310.508 367.153 L 1310.508 369.477 L 1310.508 371.8 L 1310.508 374.124 L 1310.508 376.448 L 1310.508 378.772 L 1310.508 381.095 L 1310.508 383.419 L 1310.508 385.743 L 1310.508 388.067 L 1310.508 390.39 L 1310.508 392.714 L 1310.508 395.038 L 1310.508 397.362 L 1310.508 399.685 L 1310.508 402.009 L 1310.508 404.333 L 1310.508 406.657 L 1310.508 408.98 L 1310.508 411.304 L 1310.508 413.628 L 1310.508 415.952 L 1310.508 418.275 L 1310.508 420.599 L 1310.508 422.923 L 1310.508 425.247 L 1310.508 427.57 L 1310.508 429.894 L 1310.508 432.218 L 1310.508 434.542 L 1310.508 436.865 L 1310.508 439.189 L 1310.508 441.513 L 1310.508 443.837 L 1310.508 446.16 L 1310.508 448.484 L 1310.508 450.808 L 1310.508 453.132 L 1310.508 455.455 L 1310.508 457.779 L 1310.508 460.103 L 1310.508 462.427 L 1310.508 464.75 L 1310.508 467.074 L 1310.508 469.398 L 1310.508 471.722 L 1310.508 474.045 L 1310.508 476.369 L 1310.508 478.693 L 1310.508 481.017 L 1310.508 483.34 L 1310.508 485.664 L 1310.508 487.988 L 1310.508 490.312 L 1310.508 492.635 L 1310.508 494.959 L 1310.508 497.283 L 1310.508 499.607 L 1310.508 501.93 L 1310.508 504.254 L 1310.508 506.578 L 1310.508 508.902 L 1310.508 511.225 L 1310.508 513.549 L 1310.508 515.873 L 1310.508 518.197 L 1310.508 520.52 L 1310.508 522.844 L 1310.508 525.168 L 1310.508 527.492 L 1310.508 529.815 L 1310.508 532.139 L 1310.508 534.463 L 1310.508 536.787 L 1310.508 539.11 L 1310.508 541.434 L 1310.508 543.758 L 1310.508 546.082 L 1310.508 548.405 L 1310.508 550.729 L 1310.508 553.053 L 1310.508 555.377 L 1310.508 557.7 L 1310.508 560.024 L 1310.508 562.348 L 1310.508 564.672 L 1310.508 566.995 L 1310.508 569.319 L 1310.508 571.643 L 1310.508 573.967 L 1310.508 576.29 L 1310.508 578.614 L 1310.508 580.938 L 1310.508 583.262 L 1310.508 585.585 L 1310.508 587.909 L 1310.508 590.233 L 1310.508 592.557 L 1310.508 594.88 L 1310.508 597.204 L 1310.508 599.528 L 1310.508 601.852 L 1310.508 604.175 L 1310.508 606.499 L 1310.508 608.823 L 1310.508 611.147 L 1310.508 613.47 L 1310.508 615.794 L 1310.508 618.118 L 1310.508 620.442 L 1310.508 622.766 L 1310.508 625.089 L 1310.508 627.413 L 1310.508 629.737 L 1310.508 632.061 L 1310.508 634.384 L 1310.508 636.708 L 1310.508 639.032 L 1310.508 641.356 L 1310.508 643.679 L 1310.508 646.003 L 1310.508 648.327 L 1310.508 650.651 L 1310.508 652.974 L 1310.508 655.298 L 1310.508 657.622 L 1310.508 659.946 L 1310.508 662.269 L 1310.508 664.593 L 1310.508 666.917 L 1310.508 669.241 L 1310.508 671.564 L 1310.508 673.888 L 1310.508 676.212 L 1310.508 678.536 L 1310.508 680.859 L 1310.508 683.183 L 1310.508 685.507 L 1310.508 687.831 L 1310.508 690.154 L 1310.508 692.478 L 1310.508 694.802 L 1310.508 697.126 L 1310.508 699.449 L 1310.508 701.773 L 1310.508 704.097 L 1310.508 706.421 L 1310.508 708.744 L 1310.508 711.068 L 1310.508 713.392 L 1310.508 715.716 L 1310.508 718.039 L 1310.508 720.363 L 1310.508 722.687 L 1310.508 725.011 L 1310.508 727.334 L 1310.508 729.658 L 1310.508 731.982 L 1310.508 734.306 L 1310.508 736.629 L 1310.508 738.953 L 1310.508 741.277 L 1310.508 743.601 L 1310.508 745.924 L 1310.508 748.248 L 1310.508 750.572 L 1310.508 752.896 L 1310.508 755.219 L 1310.508 757.543 L 1310.508 759.867 L 1310.508 762.191 L 1310.508 764.514 L 1310.508 766.838 L 1310.508 769.162 L 1310.508 771.486 L 1310.508 773.809 L 1310.508 776.133 L 1310.508 778.457 L 1310.508 780.781 L 1310.508 783.104 L 1310.508 785.428 L 1310.508 787.752 L 1310.508 790.076 L 1310.508 792.399 L 1310.508 794.723 L 1310.508 797.047 L 1310.508 799.371 L 1310.508 801.694 L 1310.508 804.018 L 1310.508 806.342 L 1310.508 808.666 L 1310.508 810.989 L 1310.508 813.313 L 1310.508 815.637 L 1310.508 817.961 L 1310.508 820.284 L 1310.508 822.608 L 1310.508 824.932 L 1310.508 827.256 L 1310.508 829.579 L 1310.508 831.903 L 1310.508 834.227 L 1310.508 836.551 L 1310.508 838.874 L 1310.508 841.198 L 1310.508 843.522 L 1310.508 845.846 L 1310.508 848.169 L 1310.508 850.493 L 1310.508 852.817 L 1310.508 855.141 L 1310.508 857.464 L 1310.508 859.788 L 1310.508 862.112 L 1310.508 864.436 L 1310.508 866.759 L 1310.508 869.083 L 1310.508 871.407 L 1310.508 873.731 L 1310.508 876.054 L 1310.508 878.378 L 1310.508 880.702 L 1310.508 883.026 L 1310.508 885.349 L 1310.508 887.673 L 1310.508 889.997 L 1310.508 892.321 L 1310.508 894.644 L 1310.508 896.968 L 1310.508 899.292 L 1310.508 901.616 L 1310.508 903.939 L 1310.508 906.263 L 1310.508 908.587 L 1310.508 910.911 L 1310.508 913.234 L 1310.508 915.558 L 1310.508 917.882 L 1310.508 920.206 L 1310.508 922.53 L 1310.508 924.853 L 1310.508 927.177 L 1310.508 929.501 L 1310.508 931.825 L 1310.508 934.148 L 1310.508 936.472 L 1310.508 938.796 L 1310.508 941.12 L 1310.508 943.443 L 1310.508 945.767 L 1310.508 948.091 L 1310.508 950.415 L 1310.508 952.738 L 1310.508 955.062 L 1310.508 957.386 L 1310.508 959.71 L 1310.508 962.033 L 1310.508 964.357 L 1310.508 966.681 L 1310.508 969.005 L 1310.508 971.328 L 1310.508 973.652 L 1310.508 975.976 L 1310.508 978.3 L 1310.508 980.623 L 1310.508 982.947 L 1310.508 985.271 L 1310.508 987.595 L 1310.508 989.918 L 1310.508 992.242 L 1310.508 994.566 L 1310.508 996.89 L 1310.508 999.213 L 1310.508 1001.537 L 1310.508 1003.861 L 1310.508 1006.185 L 1310.508 1008.508 L 1310.508 1010.832 L 1310.508 1013.156 L 1310.508 1015.48 L 1310.508 1017.803 L 1310.508 1020.127 L 1310.508 1022.451 L 1310.508 1024.775 L 1310.508 1027.098 L 1310.508 1029.422 L 1310.508 1031.746 L 1310.508 1034.07 L 1310.508 1036.393 L 1310.508 1038.717 L 1310.508 1041.041 L 1310.508 1043.365 L 1310.508 1045.688 L 1310.508 1048.012 L 1310.508 1050.336 L 1310.508 1052.66 L 1310.508 1054.983 L 1310.508 1057.307 L 1310.508 1059.631 L 1310.508 1061.955 L 1310.508 1064.278 L 1310.508 1066.602 L 1310.508 1068.926 L 1310.508 1071.25 L 1310.508 1073.573 L 1310.508 1075.897 L 1310.508 1078.221 L 1310.508 1080.545 L 1310.508 1082.868 L 1310.508 1085.192 L 1310.508 1087.516 L 1310.508 1089.84 L 1310.508 1092.163 L 1310.508 1094.487 L 1310.508 1096.811 L 1310.508 1099.135 L 1310.508 1101.458 L 1310.508 1103.782 L 1310.508 1106.106 L 1310.508 1108.43 L 1310.508 1110.753 L 1310.508 1113.077 L 1310.508 1115.401 L 1310.508 1117.725 L 1310.508 1120.048 L 1310.508 1122.372 L 1310.508 1124.696 L 1310.508 1127.02 L 1310.508 1129.343 L 1310.508 1131.667 L 1310.508 1133.991 L 1310.508 1136.315 L 1310.508 1138.638 L 1310.508 1140.962 L 1310.508 1143.286 L 1310.508 1145.61 L 1310.508 1147.933 L 1310.508 1150.257 L 1310.508 1152.581 L 1310.508 1154.905 L 1310.508 1157.228 L 1310.508 1159.552 L 1310.508 1161.876 L 1310.508 1164.2 L 1310.508 1166.523 L 1310.508 1168.847 L 1310.508 1171.171 L 1310.508 1173.495 L 1310.508 1175.818 L 1310.508 1178.142 L 1310.508 1180.466 L 1310.508 1182.79 L 1310.508 1185.113 L 1310.508 1187.437 L 1310.508 1189.761 L 1310.508 1192.085 L 1310.508 1194.408 L 1307.855 1196.732 L 1307.855 1199.056 L 1307.855 1201.38 L 1307.855 1203.703 L 1305.202 1206.027 L 1305.202 1208.351 L 1305.202 1210.675 L 1302.549 1212.998 L 1302.549 1215.322 L 1299.896 1217.646 L 1299.896 1219.97 L 1297.244 1222.293 L 1297.244 1224.617 L 1294.591 1226.941 L 1294.591 1229.265 L 1291.938 1231.589 L 1289.285 1233.912 L 1286.632 1236.236 L 1283.979 1238.56 L 1281.326 1240.884 L 1281.326 1243.207 L 1278.674 1245.531 L 1276.021 1245.531 L 1273.368 1247.855 L 1270.715 1250.179 L 1268.062 1252.502 L 1265.409 1254.826 L 1262.756 1254.826 L 1260.104 1257.15 L 1257.451 1259.474 L 1254.798 1259.474 L 1252.145 1261.797 L 1249.492 1261.797 L 1246.839 1264.121 L 1244.187 1266.445 L 1241.534 1266.445 L 1238.881 1268.769 L 1236.228 1268.769 L 1233.575 1271.092 L 1230.922 1273.416 L 1228.269 1273.416 L 1225.617 1275.74 L 1222.964 1275.74 L 1220.311 1278.064 L 1217.658 1278.064 L 1215.005 1280.387 L 1212.352 1282.711 L 1209.699 1282.711 L 1207.047 1282.711 L 1204.394 1285.035 L 1201.741 1287.359 L 1199.088 1287.359 L 1196.435 1287.359 L 1193.782 1289.682 L 1191.13 1289.682 L 1188.477 1289.682 L 1185.824 1289.682 L 1183.171 1289.682 L 1180.518 1287.359 L 1177.865 1287.359 L 1175.212 1287.359 L 1172.56 1285.035 L 1169.907 1285.035 L 1167.254 1282.711 L 1164.601 1280.387 L 1161.948 1278.064 L 1161.948 1275.74 L 1159.295 1273.416 L 1159.295 1271.092 L 1156.642 1268.769 L 1156.642 1266.445 L 1156.642 1264.121 L 1156.642 1261.797 L 1156.642 1259.474 L 1153.99 1257.15 L 1153.99 1254.826 L 1153.99 1252.502 L 1153.99 1250.179 L 1153.99 1247.855 L 1153.99 1245.531 L 1153.99 1243.207 L 1153.99 1240.884 L 1153.99 1238.56 L 1153.99 1236.236 L 1153.99 1233.912 L 1153.99 1231.589 L 1153.99 1229.265 L 1153.99 1226.941 L 1153.99 1224.617 L 1153.99 1222.293 L 1153.99 1219.97 L 1153.99 1217.646 L 1153.99 1215.322 L 1153.99 1212.998 L 1153.99 1210.675 L 1153.99 1208.351 L 1153.99 1206.027 L 1153.99 1203.703 L 1153.99 1201.38 L 1153.99 1199.056 L 1153.99 1196.732 L 1153.99 1194.408 L 1153.99 1192.085 L 1153.99 1189.761 L 1153.99 1187.437 L 1153.99 1185.113 L 1153.99 1182.79 L 1153.99 1180.466 L 1153.99 1178.142 L 1153.99 1175.818 L 1153.99 1173.495 L 1153.99 1171.171 L 1153.99 1168.847 L 1153.99 1166.523 L 1153.99 1164.2 L 1153.99 1161.876 L 1153.99 1159.552 L 1153.99 1157.228 L 1153.99 1154.905 L 1153.99 1152.581 L 1153.99 1150.257 L 1153.99 1147.933 L 1153.99 1145.61 L 1153.99 1143.286 L 1153.99 1140.962 L 1153.99 1138.638 L 1153.99 1136.315 L 1153.99 1133.991 L 1153.99 1131.667 L 1153.99 1129.343 L 1153.99 1127.02 L 1153.99 1124.696 L 1153.99 1122.372 L 1153.99 1120.048 L 1153.99 1117.725 L 1153.99 1115.401 L 1153.99 1113.077 L 1153.99 1110.753 L 1153.99 1108.43 L 1153.99 1106.106 L 1153.99 1103.782 L 1153.99 1101.458 L 1153.99 1099.135 L 1153.99 1096.811 L 1153.99 1094.487 L 1153.99 1092.163 L 1153.99 1089.84 L 1153.99 1087.516 L 1153.99 1085.192 L 1153.99 1082.868 L 1153.99 1080.545 L 1153.99 1078.221 L 1153.99 1075.897 L 1153.99 1073.573 L 1153.99 1071.25 L 1153.99 1068.926 L 1153.99 1066.602 L 1153.99 1064.278 L 1153.99 1061.955 L 1153.99 1059.631 L 1153.99 1057.307 L 1153.99 1054.983 L 1153.99 1052.66 L 1153.99 1050.336 L 1153.99 1048.012 L 1153.99 1045.688 L 1153.99 1043.365 L 1153.99 1041.041 L 1153.99 1038.717 L 1153.99 1036.393 L 1153.99 1034.07 L 1153.99 1031.746 L 1153.99 1029.422 L 1153.99 1027.098 L 1153.99 1024.775 L 1153.99 1022.451 L 1153.99 1020.127 L 1153.99 1017.803 L 1153.99 1015.48 L 1153.99 1013.156 L 1153.99 1010.832 L 1153.99 1008.508 L 1153.99 1006.185 L 1153.99 1003.861 L 1153.99 1001.537 L 1153.99 999.213 L 1153.99 996.89 L 1153.99 994.566 L 1153.99 992.242 L 1153.99 989.918 L 1153.99 987.595 L 1153.99 985.271 L 1153.99 982.947 L 1153.99 980.623 L 1153.99 978.3 L 1153.99 975.976 L 1153.99 973.652 L 1153.99 971.328 L 1153.99 969.005 L 1153.99 966.681 L 1153.99 964.357 L 1153.99 962.033 L 1153.99 959.71 L 1153.99 957.386 L 1153.99 955.062 L 1153.99 952.738 L 1153.99 950.415 L 1153.99 948.091 L 1153.99 945.767 L 1153.99 943.443 L 1153.99 941.12 L 1153.99 938.796 L 1153.99 936.472 L 1153.99 934.148 L 1153.99 931.825 L 1153.99 929.501 L 1153.99 927.177 L 1153.99 924.853 L 1153.99 922.53 L 1153.99 920.206 L 1153.99 917.882 L 1153.99 915.558 L 1153.99 913.234 L 1153.99 910.911 L 1153.99 908.587 L 1153.99 906.263 L 1153.99 903.939 L 1153.99 901.616 L 1153.99 899.292 L 1153.99 896.968 L 1153.99 894.644 L 1153.99 892.321 L 1153.99 889.997 L 1153.99 887.673 L 1153.99 885.349 L 1153.99 883.026 L 1153.99 880.702 L 1153.99 878.378 L 1153.99 876.054 L 1153.99 873.731 L 1151.337 871.407 L 1151.337 869.083 L 1148.684 866.759 L 1146.031 864.436 L 1143.378 864.436 L 1140.725 862.112 L 1138.073 862.112 L 1135.42 862.112 L 1132.767 862.112 L 1130.114 862.112 L 1127.461 862.112 L 1124.808 862.112 L 1122.155 862.112 L 1119.503 864.436 L 1116.85 864.436 L 1114.197 866.759 L 1111.544 866.759 L 1108.891 869.083 L 1106.238 871.407 L 1103.585 871.407 L 1100.933 873.731 L 1098.28 873.731 L 1095.627 876.054 L 1092.974 876.054 L 1090.321 878.378 L 1087.668 878.378 L 1085.016 880.702 L 1082.363 883.026 L 1079.71 883.026 L 1077.057 885.349 L 1074.404 887.673 L 1071.751 887.673 L 1069.098 889.997 L 1066.446 892.321 L 1063.793 892.321 L 1061.14 894.644 L 1058.487 894.644 L 1055.834 896.968 L 1053.181 896.968 L 1050.528 899.292 L 1047.876 901.616 L 1045.223 901.616 L 1042.57 903.939 L 1039.917 903.939 L 1037.264 906.263 L 1034.611 908.587 L 1031.959 908.587 L 1029.306 910.911 L 1026.653 910.911 L 1024 913.234 L 1021.347 915.558 L 1018.694 915.558 L 1016.041 917.882 L 1013.389 920.206 L 1010.736 920.206 L 1008.083 920.206 L 1005.43 922.53 L 1005.43 924.853 L 1002.777 927.177 L 1002.777 929.501 L 1002.777 931.825 L 1002.777 934.148 L 1002.777 936.472 L 1002.777 938.796 L 1002.777 941.12 L 1002.777 943.443 L 1002.777 945.767 L 1002.777 948.091 L 1002.777 950.415 L 1002.777 952.738 L 1002.777 955.062 L 1002.777 957.386 L 1002.777 959.71 L 1002.777 962.033 L 1002.777 964.357 L 1002.777 966.681 L 1002.777 969.005 L 1002.777 971.328 L 1002.777 973.652 L 1002.777 975.976 L 1002.777 978.3 L 1002.777 980.623 L 1002.777 982.947 L 1002.777 985.271 L 1002.777 987.595 L 1002.777 989.918 L 1002.777 992.242 L 1002.777 994.566 L 1002.777 996.89 L 1002.777 999.213 L 1002.777 1001.537 L 1002.777 1003.861 L 1002.777 1006.185 L 1002.777 1008.508 L 1002.777 1010.832 L 1002.777 1013.156 L 1002.777 1015.48 L 1002.777 1017.803 L 1002.777 1020.127 L 1002.777 1022.451 L 1002.777 1024.775 L 1002.777 1027.098 L 1002.777 1029.422 L 1002.777 1031.746 L 1002.777 1034.07 L 1002.777 1036.393 L 1002.777 1038.717 L 1002.777 1041.041 L 1002.777 1043.365 L 1002.777 1045.688 L 1002.777 1048.012 L 1002.777 1050.336 L 1002.777 1052.66 L 1002.777 1054.983 L 1002.777 1057.307 L 1002.777 1059.631 L 1002.777 1061.955 L 1002.777 1064.278 L 1002.777 1066.602 L 1002.777 1068.926 L 1002.777 1071.25 L 1002.777 1073.573 L 1002.777 1075.897 L 1002.777 1078.221 L 1002.777 1080.545 L 1002.777 1082.868 L 1002.777 1085.192 L 1002.777 1087.516 L 1002.777 1089.84 L 1002.777 1092.163 L 1002.777 1094.487 L 1002.777 1096.811 L 1002.777 1099.135 L 1002.777 1101.458 L 1002.777 1103.782 L 1002.777 1106.106 L 1002.777 1108.43 L 1002.777 1110.753 L 1002.777 1113.077 L 1002.777 1115.401 L 1002.777 1117.725 L 1002.777 1120.048 L 1002.777 1122.372 L 1002.777 1124.696 L 1002.777 1127.02 L 1002.777 1129.343 L 1002.777 1131.667 L 1002.777 1133.991 L 1002.777 1136.315 L 1002.777 1138.638 L 1002.777 1140.962 L 1002.777 1143.286 L 1002.777 1145.61 L 1002.777 1147.933 L 1002.777 1150.257 L 1002.777 1152.581 L 1002.777 1154.905 L 1002.777 1157.228 L 1002.777 1159.552 L 1002.777 1161.876 L 1002.777 1164.2 L 1002.777 1166.523 L 1002.777 1168.847 L 1002.777 1171.171 L 1002.777 1173.495 L 1002.777 1175.818 L 1002.777 1178.142 L 1002.777 1180.466 L 1002.777 1182.79 L 1002.777 1185.113 L 1002.777 1187.437 L 1002.777 1189.761 L 1002.777 1192.085 L 1002.777 1194.408 L 1002.777 1196.732 L 1002.777 1199.056 L 1002.777 1201.38 L 1002.777 1203.703 L 1002.777 1206.027 L 1002.777 1208.351 L 1002.777 1210.675 L 1002.777 1212.998 L 1002.777 1215.322 L 1002.777 1217.646 L 1002.777 1219.97 L 1002.777 1222.293 L 1002.777 1224.617 L 1002.777 1226.941 L 1002.777 1229.265 L 1002.777 1231.589 L 1002.777 1233.912 L 1002.777 1236.236 L 1002.777 1238.56 L 1002.777 1240.884 L 1002.777 1243.207 L 1002.777 1245.531 L 1002.777 1247.855 L 1002.777 1250.179 L 1002.777 1252.502 L 1002.777 1254.826 L 1002.777 1257.15 L 1002.777 1259.474 L 1002.777 1261.797 L 1002.777 1264.121 L 1002.777 1266.445 L 1002.777 1268.769 L 1002.777 1271.092 L 1002.777 1273.416 L 1002.777 1275.74 L 1002.777 1278.064 L 1002.777 1280.387 L 1002.777 1282.711 L 1002.777 1285.035 L 1002.777 1287.359 L 1002.777 1289.682 L 1002.777 1292.006 L 1002.777 1294.33 L 1002.777 1296.654 L 1002.777 1298.977 L 1002.777 1301.301 L 1002.777 1303.625 L 1002.777 1305.949 L 1002.777 1308.272 L 1002.777 1310.596 L 1002.777 1312.92 L 1002.777 1315.244 L 1002.777 1317.567 L 1002.777 1319.891 L 1002.777 1322.215 L 1002.777 1324.539 L 1002.777 1326.862 L 1002.777 1329.186 L 1002.777 1331.51 L 1002.777 1333.834 L 1002.777 1336.157 L 1002.777 1338.481 L 1002.777 1340.805 L 1002.777 1343.129 L 1002.777 1345.452 L 1002.777 1347.776 L 1002.777 1350.1 L 1002.777 1352.424 L 1002.777 1354.747 L 1002.777 1357.071 L 1002.777 1359.395 L 1002.777 1361.719 L 1002.777 1364.042 L 1002.777 1366.366 L 1002.777 1368.69 L 1002.777 1371.014 L 1002.777 1373.337 L 1002.777 1375.661 L 1002.777 1377.985 L 1002.777 1380.309 L 1002.777 1382.632 L 1002.777 1384.956 L 1002.777 1387.28 L 1002.777 1389.604 L 1002.777 1391.927 L 1002.777 1394.251 L 1002.777 1396.575 L 1002.777 1398.899 L 1002.777 1401.222 L 1002.777 1403.546 L 1002.777 1405.87 L 1002.777 1408.194 L 1002.777 1410.517 L 1002.777 1412.841 L 1002.777 1415.165 L 1002.777 1417.489 L 1002.777 1419.812 L 1002.777 1422.136 L 1002.777 1424.46 L 1002.777 1426.784 L 1002.777 1429.107 L 1002.777 1431.431 L 1002.777 1433.755 L 1002.777 1436.079 L 1002.777 1438.402 L 1002.777 1440.726 L 1002.777 1443.05 L 1002.777 1445.374 L 1002.777 1447.697 L 1002.777 1450.021 L 1002.777 1452.345 L 1002.777 1454.669 L 1002.777 1456.992 L 1002.777 1459.316 L 1002.777 1461.64 L 1005.43 1463.964 L 1005.43 1466.287 L 1005.43 1468.611 L 1005.43 1470.935 L 1008.083 1473.259 L 1008.083 1475.582 L 1010.736 1477.906 L 1010.736 1480.23 L 1010.736 1482.554 L 1013.389 1484.877 L 1013.389 1487.201 L 1016.041 1489.525 L 1018.694 1491.849 L 1018.694 1494.172 L 1021.347 1496.496 L 1024 1498.82 L 1024 1501.144 L 1026.653 1503.467 L 1029.306 1505.791 L 1031.959 1508.115 L 1034.611 1510.439 L 1037.264 1512.762 L 1039.917 1515.086 L 1042.57 1517.41 L 1045.223 1519.734 L 1047.876 1519.734 L 1050.528 1522.057 L 1053.181 1522.057 L 1055.834 1524.381 L 1058.487 1526.705 L 1061.14 1526.705 L 1063.793 1526.705 L 1066.446 1529.029 L 1069.098 1529.029 L 1071.751 1531.352 L 1074.404 1531.352 L 1077.057 1531.352 L 1079.71 1531.352 L 1082.363 1533.676 L 1085.016 1533.676 L 1087.668 1533.676 L 1090.321 1536 L 1092.974 1536 L 1095.627 1536 L 1098.28 1536 L 1100.933 1536 L 1103.585 1536 L 1106.238 1536 L 1108.891 1536 L 1111.544 1536 L 1114.197 1536 L 1116.85 1536 L 1119.503 1536 L 1122.155 1536 L 1124.808 1536 L 1127.461 1536 L 1130.114 1536 L 1132.767 1536 L 1135.42 1533.676 L 1138.073 1533.676 L 1140.725 1533.676 L 1143.378 1533.676 L 1146.031 1533.676 L 1148.684 1531.352 L 1151.337 1531.352 L 1153.99 1531.352 L 1156.642 1529.029 L 1159.295 1529.029 L 1161.948 1526.705 L 1164.601 1526.705 L 1167.254 1524.381 L 1169.907 1524.381 L 1172.56 1522.057 L 1175.212 1519.734 L 1177.865 1519.734 L 1180.518 1517.41 L 1183.171 1517.41 L 1185.824 1515.086 L 1188.477 1515.086 L 1191.13 1512.762 L 1193.782 1510.439 L 1196.435 1510.439 L 1199.088 1508.115 L 1201.741 1508.115 L 1204.394 1505.791 L 1207.047 1503.467 L 1209.699 1503.467 L 1212.352 1501.144 L 1215.005 1501.144 L 1217.658 1498.82 L 1220.311 1498.82 L 1222.964 1496.496 L 1225.617 1494.172 L 1228.269 1494.172 L 1230.922 1491.849 L 1233.575 1491.849 L 1236.228 1489.525 L 1238.881 1487.201 L 1241.534 1487.201 L 1244.187 1484.877 L 1246.839 1484.877 L 1249.492 1482.554 L 1252.145 1482.554 L 1254.798 1480.23 L 1257.451 1477.906 L 1260.104 1475.582 L 1262.756 1475.582 L 1265.409 1473.259 L 1268.062 1473.259 L 1270.715 1470.935 L 1273.368 1470.935 L 1276.021 1468.611 L 1278.674 1466.287 L 1281.326 1466.287 L 1283.979 1463.964 L 1286.632 1463.964 L 1289.285 1461.64 L 1291.938 1459.316 L 1294.591 1459.316 L 1297.244 1456.992 L 1299.896 1456.992 L 1302.549 1454.669 L 1305.202 1452.345 L 1307.855 1452.345 L 1310.508 1450.021 L 1313.161 1450.021 L 1315.813 1447.697 L 1318.466 1445.374 L 1321.119 1445.374 L 1323.772 1443.05 L 1326.425 1443.05 L 1329.078 1440.726 L 1331.731 1438.402 L 1334.383 1438.402 L 1337.036 1436.079 L 1339.689 1436.079 L 1342.342 1433.755 L 1344.995 1433.755 L 1347.648 1431.431 L 1350.301 1429.107 L 1352.953 1429.107 L 1355.606 1426.784 L 1358.259 1424.46 L 1360.912 1424.46 L 1363.565 1422.136 L 1366.218 1422.136 L 1368.87 1419.812 L 1371.523 1417.489 L 1374.176 1417.489 L 1376.829 1415.165 L 1379.482 1415.165 L 1382.135 1412.841 L 1384.788 1410.517 L 1387.44 1410.517 L 1390.093 1408.194 L 1392.746 1408.194 L 1395.399 1405.87 L 1398.052 1405.87 L 1400.705 1403.546 L 1403.358 1401.222 L 1406.01 1401.222 L 1408.663 1398.899 L 1411.316 1398.899 L 1413.969 1396.575 L 1416.622 1394.251 L 1419.275 1394.251 L 1421.927 1391.927 L 1424.58 1391.927 L 1427.233 1389.604 L 1429.886 1387.28 L 1432.539 1387.28 L 1435.192 1384.956 L 1437.845 1384.956 L 1440.497 1382.632 L 1443.15 1380.309 L 1445.803 1380.309 L 1448.456 1377.985 L 1451.109 1377.985 L 1453.762 1375.661 L 1456.415 1375.661 L 1459.067 1373.337 L 1461.72 1371.014 L 1464.373 1371.014 L 1467.026 1368.69 L 1469.679 1366.366 L 1472.332 1364.042 L 1474.984 1364.042 L 1477.637 1361.719 L 1480.29 1359.395 L 1482.943 1357.071 L 1485.596 1357.071 L 1488.249 1354.747 L 1490.902 1352.424 L 1490.902 1350.1 L 1493.554 1347.776 L 1496.207 1345.452 L 1498.86 1343.129 L 1501.513 1340.805 L 1504.166 1338.481 L 1504.166 1336.157 L 1506.819 1333.834 L 1509.472 1331.51 L 1509.472 1329.186 L 1512.124 1326.862 L 1512.124 1324.539 L 1514.777 1322.215 L 1517.43 1319.891 L 1517.43 1317.567 L 1520.083 1315.244 L 1520.083 1312.92 L 1522.736 1310.596 L 1522.736 1308.272 L 1522.736 1305.949 L 1525.389 1303.625 L 1525.389 1301.301 L 1528.041 1298.977 L 1528.041 1296.654 L 1528.041 1294.33 L 1528.041 1292.006 L 1530.694 1289.682 L 1530.694 1287.359 L 1533.347 1285.035 L 1533.347 1282.711 L 1533.347 1280.387 L 1533.347 1278.064 L 1533.347 1275.74 L 1533.347 1273.416 L 1533.347 1271.092 L 1533.347 1268.769 L 1533.347 1266.445 L 1533.347 1264.121 L 1536 1261.797 L 1536 1259.474 L 1536 1257.15 L 1536 1254.826 L 1536 1252.502 L 1536 1250.179 L 1536 1247.855 L 1536 1245.531 L 1536 1243.207 L 1536 1240.884 L 1536 1238.56 L 1536 1236.236 L 1536 1233.912 L 1536 1231.589 L 1536 1229.265 L 1536 1226.941 L 1536 1224.617 L 1536 1222.293 L 1536 1219.97 L 1536 1217.646 L 1536 1215.322 L 1536 1212.998 L 1536 1210.675 L 1536 1208.351 L 1536 1206.027 L 1536 1203.703 L 1536 1201.38 L 1536 1199.056 L 1536 1196.732 L 1536 1194.408 L 1536 1192.085 L 1536 1189.761 L 1536 1187.437 L 1536 1185.113 L 1536 1182.79 L 1536 1180.466 L 1536 1178.142 L 1536 1175.818 L 1536 1173.495 L 1536 1171.171 L 1536 1168.847 L 1536 1166.523 L 1536 1164.2 L 1536 1161.876 L 1536 1159.552 L 1536 1157.228 L 1536 1154.905 L 1536 1152.581 L 1536 1150.257 L 1536 1147.933 L 1536 1145.61 L 1536 1143.286 L 1536 1140.962 L 1536 1138.638 L 1536 1136.315 L 1536 1133.991 L 1536 1131.667 L 1536 1129.343 L 1536 1127.02 L 1536 1124.696 L 1536 1122.372 L 1536 1120.048 L 1536 1117.725 L 1536 1115.401 L 1536 1113.077 L 1536 1110.753 L 1536 1108.43 L 1536 1106.106 L 1536 1103.782 L 1536 1101.458 L 1536 1099.135 L 1536 1096.811 L 1536 1094.487 L 1536 1092.163 L 1536 1089.84 L 1536 1087.516 L 1536 1085.192 L 1536 1082.868 L 1536 1080.545 L 1536 1078.221 L 1536 1075.897 L 1536 1073.573 L 1536 1071.25 L 1536 1068.926 L 1536 1066.602 L 1536 1064.278 L 1536 1061.955 L 1536 1059.631 L 1536 1057.307 L 1536 1054.983 L 1536 1052.66 L 1536 1050.336 L 1536 1048.012 L 1536 1045.688 L 1536 1043.365 L 1536 1041.041 L 1536 1038.717 L 1536 1036.393 L 1536 1034.07 L 1536 1031.746 L 1536 1029.422 L 1536 1027.098 L 1536 1024.775 L 1536 1022.451 L 1536 1020.127 L 1536 1017.803 L 1536 1015.48 L 1536 1013.156 L 1536 1010.832 L 1536 1008.508 L 1536 1006.185 L 1536 1003.861 L 1536 1001.537 L 1536 999.213 L 1536 996.89 L 1536 994.566 L 1536 992.242 L 1536 989.918 L 1536 987.595 L 1536 985.271 L 1536 982.947 L 1536 980.623 L 1536 978.3 L 1536 975.976 L 1536 973.652 L 1536 971.328 L 1536 969.005 L 1536 966.681 L 1536 964.357 L 1536 962.033 L 1536 959.71 L 1536 957.386 L 1536 955.062 L 1536 952.738 L 1536 950.415 L 1536 948.091 L 1536 945.767 L 1536 943.443 L 1536 941.12 L 1536 938.796 L 1536 936.472 L 1536 934.148 L 1536 931.825 L 1536 929.501 L 1536 927.177 L 1536 924.853 L 1536 922.53 L 1536 920.206 L 1536 917.882 L 1536 915.558 L 1536 913.234 L 1536 910.911 L 1536 908.587 L 1536 906.263 L 1536 903.939 L 1536 901.616 L 1536 899.292 L 1536 896.968 L 1536 894.644 L 1536 892.321 L 1536 889.997 L 1536 887.673 L 1536 885.349 L 1536 883.026 L 1536 880.702 L 1536 878.378 L 1536 876.054 L 1536 873.731 L 1536 871.407 L 1536 869.083 L 1536 866.759 L 1536 864.436 L 1536 862.112 L 1536 859.788 L 1536 857.464 L 1536 855.141 L 1536 852.817 L 1536 850.493 L 1536 848.169 L 1536 845.846 L 1536 843.522 L 1536 841.198 L 1536 838.874 L 1536 836.551 L 1536 834.227 L 1536 831.903 L 1536 829.579 L 1536 827.256 L 1536 824.932 L 1536 822.608 L 1536 820.284 L 1536 817.961 L 1536 815.637 L 1536 813.313 L 1536 810.989 L 1536 808.666 L 1536 806.342 L 1536 804.018 L 1536 801.694 L 1536 799.371 L 1536 797.047 L 1536 794.723 L 1536 792.399 L 1536 790.076 L 1536 787.752 L 1536 785.428 L 1536 783.104 L 1536 780.781 L 1536 778.457 L 1536 776.133 L 1536 773.809 L 1536 771.486 L 1536 769.162 L 1536 766.838 L 1536 764.514 L 1536 762.191 L 1536 759.867 L 1536 757.543 L 1536 755.219 L 1536 752.896 L 1536 750.572 L 1536 748.248 L 1536 745.924 L 1536 743.601 L 1536 741.277 L 1536 738.953 L 1536 736.629 L 1536 734.306 L 1536 731.982 L 1536 729.658 L 1536 727.334 L 1536 725.011 L 1536 722.687 L 1536 720.363 L 1536 718.039 L 1536 715.716 L 1536 713.392 L 1536 711.068 L 1536 708.744 L 1536 706.421 L 1536 704.097 L 1536 701.773 L 1536 699.449 L 1536 697.126 L 1536 694.802 L 1536 692.478 L 1536 690.154 L 1536 687.831 L 1536 685.507 L 1536 683.183 L 1536 680.859 L 1536 678.536 L 1536 676.212 L 1536 673.888 L 1536 671.564 L 1536 669.241 L 1536 666.917 L 1536 664.593 L 1536 662.269 L 1536 659.946 L 1536 657.622 L 1536 655.298 L 1536 652.974 L 1536 650.651 L 1536 648.327 L 1536 646.003 L 1536 643.679 L 1536 641.356 L 1536 639.032 L 1536 636.708 L 1536 634.384 L 1536 632.061 L 1536 629.737 L 1536 627.413 L 1536 625.089 L 1536 622.766 L 1536 620.442 L 1536 618.118 L 1536 615.794 L 1536 613.47 L 1536 611.147 L 1536 608.823 L 1536 606.499 L 1536 604.175 L 1536 601.852 L 1536 599.528 L 1536 597.204 L 1536 594.88 L 1536 592.557 L 1536 590.233 L 1536 587.909 L 1536 585.585 L 1536 583.262 L 1536 580.938 L 1536 578.614 L 1536 576.29 L 1536 573.967 L 1536 571.643 L 1536 569.319 L 1536 566.995 L 1536 564.672 L 1536 562.348 L 1536 560.024 L 1536 557.7 L 1536 555.377 L 1536 553.053 L 1536 550.729 L 1536 548.405 L 1536 546.082 L 1536 543.758 L 1536 541.434 L 1536 539.11 L 1536 536.787 L 1536 534.463 L 1536 532.139 L 1536 529.815 L 1536 527.492 L 1536 525.168 L 1536 522.844 L 1536 520.52 L 1536 518.197 L 1536 515.873 L 1536 513.549 L 1536 511.225 L 1536 508.902 L 1536 506.578 L 1536 504.254 L 1536 501.93 L 1536 499.607 L 1536 497.283 L 1536 494.959 L 1536 492.635 L 1536 490.312 L 1536 487.988 L 1536 485.664 L 1536 483.34 L 1536 481.017 L 1536 478.693 L 1536 476.369 L 1536 474.045 L 1536 471.722 L 1536 469.398 L 1536 467.074 L 1536 464.75 L 1536 462.427 L 1536 460.103 L 1536 457.779 L 1536 455.455 L 1536 453.132 L 1536 450.808 L 1536 448.484 L 1536 446.16 L 1536 443.837 L 1536 441.513 L 1536 439.189 L 1536 436.865 L 1536 434.542 L 1536 432.218 L 1536 429.894 L 1536 427.57 L 1536 425.247 L 1536 422.923 L 1536 420.599 L 1536 418.275 L 1536 415.952 L 1536 413.628 L 1536 411.304 L 1536 408.98 L 1536 406.657 L 1536 404.333 L 1536 402.009 L 1536 399.685 L 1536 397.362 L 1536 395.038 L 1536 392.714 L 1536 390.39 L 1536 388.067 L 1536 385.743 L 1536 383.419 L 1536 381.095 L 1536 378.772 L 1536 376.448 L 1536 374.124 L 1536 371.8 L 1536 369.477 L 1536 367.153 L 1536 364.829 L 1536 362.505 L 1536 360.182 L 1536 357.858 L 1536 355.534 L 1536 353.21 L 1536 350.887 L 1536 348.563 L 1536 346.239 L 1536 343.915 L 1536 341.592 L 1536 339.268 L 1536 336.944 L 1536 334.62 L 1536 332.297 L 1536 329.973 L 1536 327.649 L 1536 325.325 L 1536 323.002 L 1536 320.678 L 1536 318.354 L 1536 316.03 L 1536 313.707 L 1536 311.383 L 1536 309.059 L 1536 306.735 L 1536 304.411 L 1536 302.088 L 1536 299.764 L 1536 297.44 L 1536 295.116 L 1536 292.793 L 1536 290.469 L 1536 288.145 L 1536 285.821 L 1536 283.498 L 1536 281.174 L 1536 278.85 L 1536 276.526 L 1536 274.203 L 1533.347 271.879 L 1533.347 269.555 L 1533.347 267.231 L 1533.347 264.908 L 1533.347 262.584 L 1533.347 260.26 L 1533.347 257.936 L 1533.347 255.613 L 1533.347 253.289 L 1530.694 250.965 L 1530.694 248.641 L 1530.694 246.318 L 1528.041 243.994 L 1528.041 241.67 L 1528.041 239.346 L 1528.041 237.023 L 1525.389 234.699 L 1525.389 232.375 L 1522.736 230.051 L 1522.736 227.728 L 1522.736 225.404 L 1520.083 223.08 L 1520.083 220.756 L 1517.43 218.433 L 1517.43 216.109 L 1514.777 213.785 L 1514.777 211.461 L 1512.124 209.138 L 1512.124 206.814 L 1509.472 204.49 L 1506.819 202.166 L 1504.166 199.843 L 1504.166 197.519 L 1501.513 195.195 L 1498.86 192.871 L 1496.207 190.548 L 1496.207 188.224 L 1493.554 185.9 L 1490.902 183.576 L 1488.249 181.253 L 1485.596 178.929 L 1482.943 176.605 L 1480.29 176.605 L 1477.637 174.281 L 1474.984 171.958 L 1472.332 169.634 L 1469.679 167.31 L 1467.026 167.31 L 1464.373 164.986 L 1461.72 164.986 L 1459.067 162.663 L 1456.415 160.339 L 1453.762 160.339 L 1451.109 158.015 L 1448.456 158.015 L 1445.803 155.691 L 1443.15 153.368 L 1440.497 153.368 L 1437.845 151.044 L 1435.192 151.044 L 1432.539 148.72 L 1429.886 148.72 L 1427.233 146.396 L 1424.58 144.073 L 1421.927 144.073 L 1419.275 141.749 L 1416.622 139.425 L 1413.969 139.425 L 1411.316 137.101 L 1408.663 137.101 L 1406.01 134.778 L 1403.358 132.454 L 1400.705 132.454 L 1398.052 130.13 L 1395.399 130.13 L 1392.746 127.806 L 1390.093 127.806 L 1387.44 125.483 L 1384.788 123.159 L 1382.135 123.159 L 1379.482 120.835 L 1376.829 120.835 L 1374.176 118.511 L 1371.523 116.188 L 1368.87 116.188 L 1366.218 113.864 L 1363.565 113.864 L 1360.912 111.54 L 1358.259 109.216 L 1355.606 109.216 L 1352.953 106.893 L 1350.301 104.569 L 1347.648 104.569 L 1344.995 102.245 L 1342.342 102.245 L 1339.689 99.921 L 1337.036 97.598 L 1334.383 97.598 L 1331.731 95.274 L 1329.078 95.274 L 1326.425 92.95 L 1323.772 92.95 L 1321.119 90.626 L 1318.466 90.626 L 1315.813 88.303 L 1313.161 85.979 L 1310.508 85.979 L 1307.855 83.655 L 1305.202 81.331 L 1302.549 81.331 L 1299.896 79.008 L 1297.244 79.008 L 1294.591 76.684 L 1291.938 76.684 L 1289.285 74.36 L 1286.632 72.036 L 1283.979 72.036 L 1281.326 69.713 L 1278.674 67.389 L 1276.021 67.389 L 1273.368 65.065 L 1270.715 65.065 L 1268.062 62.741 L 1265.409 62.741 L 1262.756 60.418 L 1260.104 58.094 L 1257.451 58.094 L 1254.798 55.77 L 1252.145 55.77 L 1249.492 53.446 L 1246.839 51.123 L 1244.187 51.123 L 1241.534 48.799 L 1238.881 48.799 L 1236.228 46.475 L 1233.575 46.475 L 1230.922 44.151 L 1228.269 41.828 L 1225.617 41.828 L 1222.964 39.504 L 1220.311 37.18 L 1217.658 37.18 L 1215.005 34.856 L 1212.352 34.856 L 1209.699 32.533 L 1207.047 32.533 L 1204.394 30.209 L 1201.741 27.885 L 1199.088 27.885 L 1196.435 25.561 L 1193.782 25.561 L 1191.13 23.238 L 1188.477 20.914 L 1185.824 20.914 L 1183.171 18.59 L 1180.518 18.59 L 1177.865 16.266 L 1175.212 13.943 L 1172.56 13.943 L 1169.907 11.619 L 1167.254 11.619 L 1164.601 9.295 L 1161.948 9.295 L 1159.295 9.295 L 1156.642 6.971 L 1153.99 6.971 L 1151.337 4.648 L 1148.684 4.648 L 1146.031 4.648 L 1143.378 4.648 L 1140.725 2.324 L 1138.073 2.324 L 1135.42 2.324 L 1132.767 2.324 L 1130.114 0 L 1127.461 0 L 1124.808 0 L 1122.155 0 L 1119.503 0 L 1116.85 0 L 1114.197 0 L 1111.544 0 L 1108.891 0 L 1106.238 0 L 1103.585 0 L 1100.933 0 L 1098.28 0 L 1095.627 0 L 1092.974 2.324 L 1090.321 2.324 L 1087.668 2.324 L 1085.016 2.324 L 1082.363 4.648 L 1079.71 4.648 L 1077.057 4.648 L 1074.404 4.648 L 1071.751 6.971 L 1069.098 6.971 L 1066.446 9.295 L 1063.793 9.295 L 1061.14 11.619 L 1058.487 11.619 L 1055.834 13.943 L 1053.181 13.943 L 1050.528 16.266 L 1047.876 18.59 L 1045.223 18.59 L 1042.57 20.914 L 1039.917 23.238 L 1037.264 25.561 L 1034.611 27.885 L 1031.959 30.209 L 1029.306 32.533 L 1026.653 34.856 L 1024 37.18 L 1021.347 39.504 L 1021.347 41.828 L 1018.694 44.151 L 1016.041 46.475 L 1016.041 48.799 L 1013.389 51.123 L 1013.389 53.446 L 1010.736 55.77 L 1010.736 58.094 L 1008.083 60.418 L 1008.083 62.741 L 1008.083 65.065 L 1005.43 67.389 L 1005.43 69.713 L 1005.43 72.036 L 1005.43 74.36 L 1002.777 76.684 L 1002.777 79.008 L 1002.777 81.331 L 1002.777 83.655 L 1002.777 85.979 L 1002.777 88.303 L 1002.777 90.626 L 1002.777 92.95 L 1002.777 95.274 L 1002.777 97.598 L 1002.777 99.921 L 1002.777 102.245 L 1002.777 104.569 L 1002.777 106.893 L 1002.777 109.216 L 1002.777 111.54 L 1002.777 113.864 L 1002.777 116.188 L 1002.777 118.511 L 1002.777 120.835 L 1002.777 123.159 L 1002.777 125.483 L 1002.777 127.806 L 1002.777 130.13 L 1002.777 132.454 L 1002.777 134.778 L 1002.777 137.101 L 1002.777 139.425 L 1002.777 141.749 L 1002.777 144.073 L 1002.777 146.396 L 1002.777 148.72 L 1002.777 151.044 L 1002.777 153.368 L 1002.777 155.691 L 1002.777 158.015 L 1002.777 160.339 L 1002.777 162.663 L 1002.777 164.986 L 1002.777 167.31 L 1002.777 169.634 L 1002.777 171.958 L 1002.777 174.281 L 1002.777 176.605 L 1002.777 178.929 L 1002.777 181.253 L 1002.777 183.576 L 1002.777 185.9 L 1002.777 188.224 L 1002.777 190.548 L 1002.777 192.871 L 1002.777 195.195 L 1002.777 197.519 L 1002.777 199.843 L 1002.777 202.166 L 1002.777 204.49 L 1002.777 206.814 L 1002.777 209.138 L 1002.777 211.461 L 1002.777 213.785 L 1002.777 216.109 L 1002.777 218.433 L 1002.777 220.756 L 1002.777 223.08 L 1002.777 225.404 L 1002.777 227.728 L 1002.777 230.051 L 1002.777 232.375 L 1002.777 234.699 L 1002.777 237.023 L 1002.777 239.346 L 1002.777 241.67 L 1002.777 243.994 L 1002.777 246.318 L 1002.777 248.641 L 1002.777 250.965 L 1002.777 253.289 L 1002.777 255.613 L 1002.777 257.936 L 1002.777 260.26 L 1002.777 262.584 L 1002.777 264.908 L 1002.777 267.231 L 1002.777 269.555 L 1002.777 271.879 L 1002.777 274.203 L 1002.777 276.526 L 1002.777 278.85 L 1002.777 281.174 L 1002.777 283.498 L 1002.777 285.821 L 1002.777 288.145 L 1002.777 290.469 L 1002.777 292.793 L 1002.777 295.116 L 1002.777 297.44 L 1002.777 299.764 L 1002.777 302.088 L 1002.777 304.411 L 1002.777 306.735 L 1002.777 309.059 L 1002.777 311.383 L 1002.777 313.707 L 1002.777 316.03 L 1002.777 318.354 L 1002.777 320.678 L 1002.777 323.002 L 1002.777 325.325 L 1002.777 327.649 L 1002.777 329.973 L 1002.777 332.297 L 1002.777 334.62 L 1002.777 336.944 L 1002.777 339.268 L 1002.777 341.592 L 1002.777 343.915 L 1002.777 346.239 L 1002.777 348.563 L 1002.777 350.887 L 1002.777 353.21 L 1002.777 355.534 L 1002.777 357.858 L 1002.777 360.182 L 1002.777 362.505 L 1002.777 364.829 L 1002.777 367.153 L 1002.777 369.477 L 1002.777 371.8 L 1002.777 374.124 L 1002.777 376.448 L 1002.777 378.772 L 1002.777 381.095 L 1002.777 383.419 L 1002.777 385.743 L 1002.777 388.067 L 1002.777 390.39 L 1002.777 392.714 L 1002.777 395.038 L 1002.777 397.362 L 1002.777 399.685 L 1002.777 402.009 L 1002.777 404.333 L 1002.777 406.657 L 1002.777 408.98 L 1002.777 411.304 L 1002.777 413.628 L 1002.777 415.952 L 1002.777 418.275 L 1002.777 420.599 L 1002.777 422.923 L 1002.777 425.247 L 1002.777 427.57 L 1002.777 429.894 L 1002.777 432.218 L 1002.777 434.542 L 1002.777 436.865 L 1002.777 439.189 L 1002.777 441.513 L 1002.777 443.837 L 1002.777 446.16 L 1002.777 448.484 L 1002.777 450.808 L 1002.777 453.132 L 1002.777 455.455 L 1002.777 457.779 L 1002.777 460.103 L 1002.777 462.427 L 1002.777 464.75 L 1002.777 467.074 L 1002.777 469.398 L 1002.777 471.722 L 1002.777 474.045 L 1002.777 476.369 L 1002.777 478.693 L 1002.777 481.017 L 1002.777 483.34 L 1000.124 485.664 L 1000.124 487.988 L 1000.124 490.312 L 1000.124 492.635 L 1000.124 494.959 L 997.472 497.283 L 997.472 499.607 L 997.472 501.93 L 994.819 504.254 L 994.819 506.578 L 994.819 508.902 L 992.166 511.225 L 989.513 513.549 L 989.513 515.873 L 986.86 518.197 L 984.207 520.52 L 984.207 522.844 L 981.554 525.168 L 978.902 527.492 L 978.902 529.815 L 976.249 532.139 L 973.596 534.463 L 970.943 534.463 L 968.29 536.787 L 965.637 539.11 L 962.984 541.434 L 960.332 541.434 L 957.679 543.758 L 955.026 546.082 L 952.373 546.082 L 949.72 548.405 L 947.067 548.405 L 944.415 550.729 L 941.762 553.053 L 939.109 553.053 L 936.456 555.377 L 933.803 557.7 L 931.15 557.7 L 928.497 560.024 L 925.845 560.024 L 923.192 562.348 L 920.539 564.672 L 917.886 564.672 L 915.233 566.995 L 912.58 569.319 L 909.927 569.319 L 907.275 571.643 L 904.622 571.643 L 901.969 573.967 L 899.316 573.967 L 896.663 576.29 L 894.01 578.614 L 891.358 578.614 L 888.705 580.938 L 886.052 580.938 L 883.399 583.262 L 880.746 585.585 L 878.093 585.585 L 875.44 587.909 L 872.788 590.233 L 870.135 590.233 L 867.482 592.557 L 864.829 594.88 L 862.176 594.88 L 859.523 597.204 L 856.87 597.204 L 854.218 599.528 L 851.565 601.852 L 848.912 601.852 L 846.259 604.175 L 843.606 606.499 L 840.953 606.499 L 838.301 608.823 L 835.648 611.147 L 832.995 611.147 L 830.342 613.47 L 827.689 613.47 L 825.036 615.794 L 822.383 618.118 L 819.731 618.118 L 817.078 620.442 L 814.425 620.442 L 811.772 622.766 L 809.119 622.766 L 806.466 625.089 L 803.813 627.413 L 801.161 627.413 L 798.508 629.737 L 795.855 632.061 L 793.202 632.061 L 790.549 634.384 L 787.896 636.708 L 785.244 636.708 L 782.591 639.032 L 779.938 639.032 L 777.285 641.356 L 774.632 641.356 L 771.979 643.679 L 769.326 646.003 L 766.674 646.003 L 764.021 648.327 L 761.368 650.651 L 758.715 650.651 L 756.062 652.974 L 753.409 655.298 L 750.756 655.298 L 748.104 657.622 L 745.451 657.622 L 742.798 659.946 L 740.145 662.269 L 737.492 662.269 L 734.839 664.593 L 732.187 664.593 L 729.534 666.917 L 726.881 669.241 L 724.228 669.241 L 721.575 671.564 L 718.922 673.888 L 716.269 673.888 L 713.617 676.212 L 710.964 676.212 L 708.311 678.536 L 705.658 680.859 L 703.005 680.859 L 700.352 683.183 L 697.699 683.183 L 695.047 685.507 L 692.394 687.831 L 689.741 687.831 L 687.088 690.154 L 684.435 690.154 L 681.782 692.478 L 679.13 694.802 L 676.477 697.126 L 673.824 697.126 L 671.171 697.126 L 668.518 699.449 L 665.865 701.773 L 663.212 701.773 L 660.56 704.097 L 657.907 706.421 L 655.254 706.421 L 652.601 708.744 L 649.948 711.068 L 647.295 711.068 L 644.642 713.392 L 641.99 713.392 L 639.337 715.716 L 636.684 718.039 L 634.031 718.039 L 631.378 720.363 L 628.725 720.363 L 626.073 722.687 L 623.42 725.011 L 620.767 725.011 L 618.114 727.334 L 615.461 729.658 L 612.808 729.658 L 610.155 731.982 L 607.503 734.306 L 604.85 734.306 L 602.197 736.629 L 599.544 736.629 L 596.891 738.953 L 594.238 738.953 L 591.585 741.277 L 588.933 741.277 L 586.28 743.601 L 583.627 745.924 L 580.974 748.248 L 578.321 748.248 L 575.668 750.572 L 573.016 750.572 L 570.363 752.896 L 567.71 752.896 L 565.057 755.219 L 562.404 757.543 L 559.751 757.543 L 557.098 759.867 L 554.446 762.191 L 551.793 762.191 L 549.14 764.514 L 546.487 764.514 L 543.834 766.838 L 541.181 769.162 L 538.528 769.162 L 535.876 771.486 L 533.223 771.486 L 530.57 773.809 L 527.917 776.133 L 525.264 776.133 L 522.611 778.457 L 519.959 780.781 L 517.306 780.781 L 514.653 783.104 L 512 783.104 L 509.347 785.428 L 506.694 787.752 L 504.041 787.752 L 501.389 790.076 L 498.736 792.399 L 496.083 792.399 L 493.43 794.723 L 490.777 797.047 L 488.124 797.047 L 485.472 799.371 L 482.819 799.371 L 480.166 801.694 L 477.513 804.018 L 474.86 804.018 L 472.207 806.342 L 469.554 806.342 L 466.902 808.666 L 464.249 810.989 L 461.596 810.989 L 458.943 813.313 L 456.29 813.313 L 453.637 815.637 L 450.984 817.961 L 448.332 817.961 L 445.679 820.284 L 443.026 822.608 L 440.373 822.608 L 437.72 824.932 L 435.067 824.932 L 432.415 827.256 L 429.762 829.579 L 427.109 829.579 L 424.456 831.903 L 421.803 834.227 L 419.15 836.551 L 416.497 838.874 L 413.845 841.198 L 411.192 841.198 L 411.192 843.522 L 408.539 845.846 L 405.886 848.169 L 403.233 850.493 L 400.58 852.817 L 400.58 855.141 L 397.927 857.464 L 395.275 859.788 L 395.275 862.112 L 392.622 864.436 L 392.622 866.759 L 389.969 869.083 L 389.969 871.407 L 387.316 873.731 L 387.316 876.054 L 387.316 878.378 L 384.663 880.702 L 384.663 883.026 L 384.663 885.349 L 382.01 887.673 L 382.01 889.997 L 382.01 892.321 L 382.01 894.644 L 382.01 896.968 L 382.01 899.292 L 382.01 901.616 L 379.358 903.939 L 379.358 906.263 L 379.358 908.587 L 379.358 910.911 L 379.358 913.234 L 379.358 915.558 L 379.358 917.882 L 379.358 920.206 L 379.358 922.53 L 379.358 924.853 L 379.358 927.177 L 379.358 929.501 L 379.358 931.825 L 379.358 934.148 L 379.358 936.472 L 379.358 938.796 L 379.358 941.12 L 379.358 943.443 L 379.358 945.767 L 379.358 948.091 L 379.358 950.415 L 379.358 952.738 L 379.358 955.062 L 379.358 957.386 L 379.358 959.71 L 379.358 962.033 L 379.358 964.357 L 379.358 966.681 L 379.358 969.005 L 379.358 971.328 L 379.358 973.652 L 379.358 975.976 L 379.358 978.3 L 379.358 980.623 L 379.358 982.947 L 379.358 985.271 L 379.358 987.595 L 379.358 989.918 L 379.358 992.242 L 379.358 994.566 L 379.358 996.89 L 379.358 999.213 L 379.358 1001.537 L 379.358 1003.861 L 379.358 1006.185 L 379.358 1008.508 L 379.358 1010.832 L 379.358 1013.156 L 379.358 1015.48 L 379.358 1017.803 L 379.358 1020.127 L 379.358 1022.451 L 379.358 1024.775 L 379.358 1027.098 L 379.358 1029.422 L 379.358 1031.746 L 379.358 1034.07 L 379.358 1036.393 L 379.358 1038.717 L 379.358 1041.041 L 379.358 1043.365 L 379.358 1045.688 L 379.358 1048.012 L 379.358 1050.336 L 379.358 1052.66 L 379.358 1054.983 L 379.358 1057.307 L 379.358 1059.631 L 379.358 1061.955 L 379.358 1064.278 L 379.358 1066.602 L 379.358 1068.926 L 379.358 1071.25 L 379.358 1073.573 L 379.358 1075.897 L 379.358 1078.221 L 379.358 1080.545 L 379.358 1082.868 L 379.358 1085.192 L 379.358 1087.516 L 379.358 1089.84 L 379.358 1092.163 L 379.358 1094.487 L 379.358 1096.811 L 379.358 1099.135 L 379.358 1101.458 L 379.358 1103.782 L 379.358 1106.106 L 379.358 1108.43 L 379.358 1110.753 L 379.358 1113.077 L 379.358 1115.401 L 379.358 1117.725 L 379.358 1120.048 L 379.358 1122.372 L 379.358 1124.696 L 379.358 1127.02 L 379.358 1129.343 L 379.358 1131.667 L 379.358 1133.991 L 379.358 1136.315 L 379.358 1138.638 L 379.358 1140.962 L 379.358 1143.286 L 379.358 1145.61 L 379.358 1147.933 L 379.358 1150.257 L 379.358 1152.581 L 379.358 1154.905 L 379.358 1157.228 L 379.358 1159.552 L 379.358 1161.876 L 379.358 1164.2 L 379.358 1166.523 L 379.358 1168.847 L 379.358 1171.171 L 379.358 1173.495 L 379.358 1175.818 L 379.358 1178.142 L 379.358 1180.466 L 379.358 1182.79 L 379.358 1185.113 L 379.358 1187.437 L 379.358 1189.761 L 379.358 1192.085 L 379.358 1194.408 L 379.358 1196.732 L 379.358 1199.056 L 379.358 1201.38 L 379.358 1203.703 L 379.358 1206.027 L 379.358 1208.351 L 379.358 1210.675 L 379.358 1212.998 L 379.358 1215.322 L 379.358 1217.646 L 379.358 1219.97 L 379.358 1222.293 L 379.358 1224.617 L 379.358 1226.941 L 379.358 1229.265 L 379.358 1231.589 L 379.358 1233.912 L 379.358 1236.236 L 379.358 1238.56 L 379.358 1240.884 L 379.358 1243.207 L 379.358 1245.531 L 379.358 1247.855 L 379.358 1250.179 L 379.358 1252.502 L 379.358 1254.826 L 379.358 1257.15 L 379.358 1259.474 L 379.358 1261.797 L 379.358 1264.121 L 379.358 1266.445 L 379.358 1268.769 L 379.358 1271.092 L 376.705 1273.416 L 376.705 1275.74 L 374.052 1278.064 L 371.399 1278.064 L 371.399 1280.387 L 368.746 1282.711 L 366.093 1285.035 L 363.44 1285.035 L 360.788 1287.359 L 358.135 1287.359 L 355.482 1287.359 L 352.829 1287.359 L 350.176 1289.682 L 347.523 1289.682 L 344.87 1289.682 L 342.218 1289.682 L 339.565 1287.359 L 336.912 1287.359 L 334.259 1287.359 L 331.606 1285.035 L 328.953 1285.035 L 326.301 1282.711 L 323.648 1282.711 L 320.995 1280.387 L 318.342 1278.064 L 315.689 1278.064 L 313.036 1275.74 L 310.383 1275.74 L 307.731 1273.416 L 305.078 1273.416 L 302.425 1271.092 L 299.772 1271.092 L 297.119 1268.769 L 294.466 1268.769 L 291.813 1266.445 L 289.161 1264.121 L 286.508 1264.121 L 283.855 1261.797 L 281.202 1261.797 L 278.549 1259.474 L 275.896 1257.15 L 273.244 1257.15 L 270.591 1254.826 L 267.938 1254.826 L 265.285 1252.502 L 262.632 1250.179 L 259.979 1247.855 L 257.326 1245.531 L 254.674 1243.207 L 252.021 1240.884 L 249.368 1238.56 L 246.715 1236.236 L 244.062 1233.912 L 244.062 1231.589 L 241.409 1229.265 L 238.756 1226.941 L 238.756 1224.617 L 236.104 1222.293 L 236.104 1219.97 L 233.451 1217.646 L 230.798 1215.322 L 230.798 1212.998 L 230.798 1210.675 L 228.145 1208.351 L 228.145 1206.027 L 228.145 1203.703 L 225.492 1201.38 L 225.492 1199.056 L 225.492 1196.732 L 225.492 1194.408 L 225.492 1192.085 L 222.839 1189.761 L 222.839 1187.437 L 222.839 1185.113 L 222.839 1182.79 L 222.839 1180.466 L 222.839 1178.142 L 222.839 1175.818 L 222.839 1173.495 L 222.839 1171.171 L 222.839 1168.847 L 222.839 1166.523 L 222.839 1164.2 L 222.839 1161.876 L 222.839 1159.552 L 222.839 1157.228 L 222.839 1154.905 L 222.839 1152.581 L 222.839 1150.257 L 222.839 1147.933 L 222.839 1145.61 L 222.839 1143.286 L 222.839 1140.962 L 222.839 1138.638 L 222.839 1136.315 L 222.839 1133.991 L 222.839 1131.667 L 222.839 1129.343 L 222.839 1127.02 L 222.839 1124.696 L 222.839 1122.372 L 222.839 1120.048 L 222.839 1117.725 L 222.839 1115.401 L 222.839 1113.077 L 222.839 1110.753 L 222.839 1108.43 L 222.839 1106.106 L 222.839 1103.782 L 222.839 1101.458 L 222.839 1099.135 L 222.839 1096.811 L 222.839 1094.487 L 222.839 1092.163 L 222.839 1089.84 L 222.839 1087.516 L 222.839 1085.192 L 222.839 1082.868 L 222.839 1080.545 L 222.839 1078.221 L 222.839 1075.897 L 222.839 1073.573 L 222.839 1071.25 L 222.839 1068.926 L 222.839 1066.602 L 222.839 1064.278 L 222.839 1061.955 L 222.839 1059.631 L 222.839 1057.307 L 222.839 1054.983 L 222.839 1052.66 L 222.839 1050.336 L 222.839 1048.012 L 222.839 1045.688 L 222.839 1043.365 L 222.839 1041.041 L 222.839 1038.717 L 222.839 1036.393 L 222.839 1034.07 L 222.839 1031.746 L 222.839 1029.422 L 222.839 1027.098 L 222.839 1024.775 L 222.839 1022.451 L 222.839 1020.127 L 222.839 1017.803 L 222.839 1015.48 L 222.839 1013.156 L 222.839 1010.832 L 222.839 1008.508 L 222.839 1006.185 L 222.839 1003.861 L 222.839 1001.537 L 222.839 999.213 L 222.839 996.89 L 222.839 994.566 L 222.839 992.242 L 222.839 989.918 L 222.839 987.595 L 222.839 985.271 L 222.839 982.947 L 222.839 980.623 L 222.839 978.3 L 222.839 975.976 L 222.839 973.652 L 222.839 971.328 L 222.839 969.005 L 222.839 966.681 L 222.839 964.357 L 222.839 962.033 L 222.839 959.71 L 222.839 957.386 L 222.839 955.062 L 222.839 952.738 L 222.839 950.415 L 222.839 948.091 L 222.839 945.767 L 222.839 943.443 L 222.839 941.12 L 222.839 938.796 L 222.839 936.472 L 222.839 934.148 L 222.839 931.825 L 222.839 929.501 L 222.839 927.177 L 222.839 924.853 L 222.839 922.53 L 222.839 920.206 L 222.839 917.882 L 222.839 915.558 L 222.839 913.234 L 222.839 910.911 L 222.839 908.587 L 222.839 906.263 L 222.839 903.939 L 222.839 901.616 L 222.839 899.292 L 222.839 896.968 L 222.839 894.644 L 222.839 892.321 L 222.839 889.997 L 222.839 887.673 L 222.839 885.349 L 222.839 883.026 L 222.839 880.702 L 222.839 878.378 L 222.839 876.054 L 222.839 873.731 L 222.839 871.407 L 222.839 869.083 L 222.839 866.759 L 222.839 864.436 L 222.839 862.112 L 222.839 859.788 L 222.839 857.464 L 222.839 855.141 L 222.839 852.817 L 222.839 850.493 L 222.839 848.169 L 222.839 845.846 L 222.839 843.522 L 222.839 841.198 L 222.839 838.874 L 222.839 836.551 L 222.839 834.227 L 222.839 831.903 L 222.839 829.579 L 222.839 827.256 L 222.839 824.932 L 222.839 822.608 L 222.839 820.284 L 222.839 817.961 L 222.839 815.637 L 222.839 813.313 L 222.839 810.989 L 222.839 808.666 L 222.839 806.342 L 222.839 804.018 L 222.839 801.694 L 222.839 799.371 L 222.839 797.047 L 222.839 794.723 L 222.839 792.399 L 222.839 790.076 L 222.839 787.752 L 222.839 785.428 L 222.839 783.104 L 222.839 780.781 L 222.839 778.457 L 222.839 776.133 L 222.839 773.809 L 222.839 771.486 L 222.839 769.162 L 222.839 766.838 L 222.839 764.514 L 222.839 762.191 L 222.839 759.867 L 222.839 757.543 L 222.839 755.219 L 222.839 752.896 L 222.839 750.572 L 222.839 748.248 L 222.839 745.924 L 222.839 743.601 L 222.839 741.277 L 222.839 738.953 L 222.839 736.629 L 222.839 734.306 L 222.839 731.982 L 222.839 729.658 L 222.839 727.334 L 222.839 725.011 L 222.839 722.687 L 222.839 720.363 L 222.839 718.039 L 222.839 715.716 L 222.839 713.392 L 222.839 711.068 L 222.839 708.744 L 222.839 706.421 L 222.839 704.097 L 222.839 701.773 L 222.839 699.449 L 222.839 697.126 L 222.839 694.802 L 222.839 692.478 L 222.839 690.154 L 222.839 687.831 L 222.839 685.507 L 222.839 683.183 L 222.839 680.859 L 222.839 678.536 L 222.839 676.212 L 222.839 673.888 L 222.839 671.564 L 222.839 669.241 L 222.839 666.917 L 222.839 664.593 L 222.839 662.269 L 222.839 659.946 L 222.839 657.622 L 222.839 655.298 L 222.839 652.974 L 222.839 650.651 L 222.839 648.327 L 222.839 646.003 L 222.839 643.679 L 222.839 641.356 L 222.839 639.032 L 222.839 636.708 L 222.839 634.384 L 222.839 632.061 L 222.839 629.737 L 222.839 627.413 L 222.839 625.089 L 222.839 622.766 L 222.839 620.442 L 222.839 618.118 L 222.839 615.794 L 222.839 613.47 L 222.839 611.147 L 222.839 608.823 L 222.839 606.499 L 222.839 604.175 L 222.839 601.852 L 222.839 599.528 L 222.839 597.204 L 222.839 594.88 L 222.839 592.557 L 222.839 590.233 L 222.839 587.909 L 222.839 585.585 L 222.839 583.262 L 222.839 580.938 L 222.839 578.614 L 222.839 576.29 L 222.839 573.967 L 222.839 571.643 L 222.839 569.319 L 222.839 566.995 L 222.839 564.672 L 222.839 562.348 L 222.839 560.024 L 222.839 557.7 L 222.839 555.377 L 222.839 553.053 L 222.839 550.729 L 222.839 548.405 L 222.839 546.082 L 222.839 543.758 L 222.839 541.434 L 222.839 539.11 L 222.839 536.787 L 222.839 534.463 L 222.839 532.139 L 222.839 529.815 L 222.839 527.492 L 222.839 525.168 L 222.839 522.844 L 222.839 520.52 L 222.839 518.197 L 222.839 515.873 L 222.839 513.549 L 222.839 511.225 L 222.839 508.902 L 222.839 506.578 L 222.839 504.254 L 222.839 501.93 L 222.839 499.607 L 222.839 497.283 L 222.839 494.959 L 222.839 492.635 L 222.839 490.312 L 222.839 487.988 L 222.839 485.664 L 222.839 483.34 L 222.839 481.017 L 222.839 478.693 L 222.839 476.369 L 222.839 474.045 L 222.839 471.722 L 222.839 469.398 L 222.839 467.074 L 222.839 464.75 L 222.839 462.427 L 222.839 460.103 L 222.839 457.779 L 222.839 455.455 L 222.839 453.132 L 222.839 450.808 L 222.839 448.484 L 222.839 446.16 L 222.839 443.837 L 222.839 441.513 L 222.839 439.189 L 222.839 436.865 L 222.839 434.542 L 222.839 432.218 L 222.839 429.894 L 222.839 427.57 L 222.839 425.247 L 222.839 422.923 L 222.839 420.599 L 222.839 418.275 L 222.839 415.952 L 222.839 413.628 L 222.839 411.304 L 222.839 408.98 L 222.839 406.657 L 222.839 404.333 L 222.839 402.009 L 222.839 399.685 L 222.839 397.362 L 222.839 395.038 L 222.839 392.714 L 222.839 390.39 L 222.839 388.067 L 222.839 385.743 L 222.839 383.419 L 222.839 381.095 L 222.839 378.772 L 222.839 376.448 L 222.839 374.124 L 222.839 371.8 L 222.839 369.477 L 222.839 367.153 L 222.839 364.829 L 222.839 362.505 L 222.839 360.182 L 222.839 357.858 L 222.839 355.534 L 222.839 353.21 L 222.839 350.887 L 222.839 348.563 L 225.492 346.239 L 225.492 343.915 L 225.492 341.592 L 225.492 339.268 L 225.492 336.944 L 228.145 334.62 L 228.145 332.297 L 228.145 329.973 L 228.145 327.649 L 230.798 325.325 L 230.798 323.002 L 233.451 320.678 L 233.451 318.354 L 236.104 316.03 L 236.104 313.707 L 238.756 311.383 L 241.409 309.059 L 241.409 306.735 L 244.062 304.411 L 246.715 302.088 L 249.368 299.764 L 252.021 297.44 L 254.674 295.116 L 254.674 292.793 L 257.326 290.469 L 259.979 288.145 L 262.632 288.145 L 265.285 285.821 L 267.938 283.498 L 270.591 283.498 L 273.244 281.174 L 275.896 278.85 L 278.549 278.85 L 281.202 276.526 L 283.855 274.203 L 286.508 274.203 L 289.161 271.879 L 291.813 271.879 L 294.466 269.555 L 297.119 269.555 L 299.772 267.231 L 302.425 264.908 L 305.078 264.908 L 307.731 262.584 L 310.383 262.584 L 313.036 260.26 L 315.689 257.936 L 318.342 257.936 L 320.995 255.613 L 323.648 255.613 L 326.301 253.289 L 328.953 253.289 L 331.606 250.965 L 334.259 250.965 L 336.912 248.641 L 339.565 248.641 L 342.218 248.641 L 344.87 248.641 L 347.523 248.641 L 350.176 248.641 L 352.829 248.641 L 355.482 248.641 L 358.135 248.641 L 360.788 250.965 L 363.44 250.965 L 366.093 253.289 L 368.746 255.613 L 371.399 257.936 L 374.052 260.26 L 376.705 262.584 L 376.705 264.908 L 379.358 267.231 L 379.358 269.555 L 379.358 271.879 L 379.358 274.203 L 379.358 276.526 L 379.358 278.85 L 379.358 281.174 L 379.358 283.498 L 379.358 285.821 L 379.358 288.145 L 379.358 290.469 L 379.358 292.793 L 379.358 295.116 L 379.358 297.44 L 379.358 299.764 L 379.358 302.088 L 379.358 304.411 L 379.358 306.735 L 379.358 309.059 L 379.358 311.383 L 379.358 313.707 L 379.358 316.03 L 379.358 318.354 L 379.358 320.678 L 379.358 323.002 L 379.358 325.325 L 379.358 327.649 L 379.358 329.973 L 379.358 332.297 L 379.358 334.62 L 379.358 336.944 L 379.358 339.268 L 379.358 341.592 L 379.358 343.915 L 379.358 346.239 L 379.358 348.563 L 379.358 350.887 L 379.358 353.21 L 379.358 355.534 L 379.358 357.858 L 379.358 360.182 L 379.358 362.505 L 379.358 364.829 L 379.358 367.153 L 379.358 369.477 L 379.358 371.8 L 379.358 374.124 L 379.358 376.448 L 379.358 378.772 L 379.358 381.095 L 379.358 383.419 L 379.358 385.743 L 379.358 388.067 L 379.358 390.39 L 379.358 392.714 L 379.358 395.038 L 379.358 397.362 L 379.358 399.685 L 379.358 402.009 L 379.358 404.333 L 379.358 406.657 L 379.358 408.98 L 379.358 411.304 L 379.358 413.628 L 379.358 415.952 L 379.358 418.275 L 379.358 420.599 L 379.358 422.923 L 379.358 425.247 L 379.358 427.57 L 379.358 429.894 L 379.358 432.218 L 379.358 434.542 L 379.358 436.865 L 379.358 439.189 L 379.358 441.513 L 379.358 443.837 L 379.358 446.16 L 379.358 448.484 L 379.358 450.808 L 379.358 453.132 L 379.358 455.455 L 379.358 457.779 L 379.358 460.103 L 379.358 462.427 L 379.358 464.75 L 379.358 467.074 L 379.358 469.398 L 379.358 471.722 L 379.358 474.045 L 379.358 476.369 L 379.358 478.693 L 379.358 481.017 L 379.358 483.34 L 379.358 485.664 L 379.358 487.988 L 379.358 490.312 L 379.358 492.635 L 379.358 494.959 L 379.358 497.283 L 379.358 499.607 L 379.358 501.93 L 379.358 504.254 L 379.358 506.578 L 379.358 508.902 L 379.358 511.225 L 379.358 513.549 L 379.358 515.873 L 379.358 518.197 L 379.358 520.52 L 379.358 522.844 L 379.358 525.168 L 379.358 527.492 L 379.358 529.815 L 379.358 532.139 L 379.358 534.463 L 379.358 536.787 L 379.358 539.11 L 379.358 541.434 L 379.358 543.758 L 379.358 546.082 L 379.358 548.405 L 379.358 550.729 L 379.358 553.053 L 379.358 555.377 L 379.358 557.7 L 379.358 560.024 L 379.358 562.348 L 379.358 564.672 L 379.358 566.995 L 379.358 569.319 L 379.358 571.643 L 379.358 573.967 L 379.358 576.29 L 379.358 578.614 L 379.358 580.938 L 379.358 583.262 L 379.358 585.585 L 379.358 587.909 L 379.358 590.233 L 379.358 592.557 L 379.358 594.88 L 379.358 597.204 L 379.358 599.528 L 379.358 601.852 L 379.358 604.175 L 379.358 606.499 L 379.358 608.823 L 379.358 611.147 L 379.358 613.47 L 379.358 615.794 L 379.358 618.118 L 379.358 620.442 L 379.358 622.766 L 379.358 625.089 L 379.358 627.413 L 379.358 629.737 L 379.358 632.061 L 379.358 634.384 L 379.358 636.708 L 379.358 639.032 L 379.358 641.356 L 379.358 643.679 L 379.358 646.003 L 379.358 648.327 L 379.358 650.651 L 379.358 652.974 L 379.358 655.298 L 379.358 657.622 L 379.358 659.946 L 379.358 662.269 L 379.358 664.593 L 379.358 666.917 L 382.01 669.241 L 382.01 671.564 L 382.01 673.888 L 382.01 676.212 L 384.663 678.536 L 384.663 680.859 L 387.316 683.183 L 389.969 683.183 L 392.622 685.507 L 395.275 685.507 L 397.927 687.831 L 400.58 687.831 L 403.233 687.831 L 405.886 687.831 L 408.539 685.507 L 411.192 685.507 L 413.845 685.507 L 416.497 683.183 L 419.15 683.183 L 421.803 680.859 L 424.456 680.859 L 427.109 678.536 L 429.762 676.212 L 432.415 676.212 L 435.067 673.888 L 437.72 673.888 L 440.373 671.564 L 443.026 671.564 L 445.679 669.241 L 448.332 666.917 L 450.984 666.917 L 453.637 664.593 L 456.29 664.593 L 458.943 662.269 L 461.596 659.946 L 464.249 659.946 L 466.902 657.622 L 469.554 655.298 L 472.207 655.298 L 474.86 652.974 L 477.513 652.974 L 480.166 650.651 L 482.819 648.327 L 485.472 648.327 L 488.124 646.003 L 490.777 643.679 L 493.43 643.679 L 496.083 641.356 L 498.736 641.356 L 501.389 639.032 L 504.041 636.708 L 506.694 636.708 L 509.347 634.384 L 512 634.384 L 514.653 632.061 L 517.306 629.737 L 519.959 629.737 L 522.611 627.413 L 525.264 625.089 L 527.917 625.089 L 530.57 622.766 L 533.223 620.442 L 533.223 618.118 L 533.223 615.794 L 533.223 613.47 L 533.223 611.147 L 533.223 608.823 L 533.223 606.499 L 533.223 604.175 L 533.223 601.852 L 533.223 599.528 L 533.223 597.204 L 533.223 594.88 L 533.223 592.557 L 533.223 590.233 L 533.223 587.909 L 533.223 585.585 L 533.223 583.262 L 533.223 580.938 L 533.223 578.614 L 533.223 576.29 L 533.223 573.967 L 533.223 571.643 L 533.223 569.319 L 533.223 566.995 L 533.223 564.672 L 533.223 562.348 L 533.223 560.024 L 533.223 557.7 L 533.223 555.377 L 533.223 553.053 L 533.223 550.729 L 533.223 548.405 L 533.223 546.082 L 533.223 543.758 L 533.223 541.434 L 533.223 539.11 L 533.223 536.787 L 533.223 534.463 L 533.223 532.139 L 533.223 529.815 L 533.223 527.492 L 533.223 525.168 L 533.223 522.844 L 533.223 520.52 L 533.223 518.197 L 533.223 515.873 L 533.223 513.549 L 533.223 511.225 L 533.223 508.902 L 533.223 506.578 L 533.223 504.254 L 533.223 501.93 L 533.223 499.607 L 533.223 497.283 L 533.223 494.959 L 533.223 492.635 L 533.223 490.312 L 533.223 487.988 L 533.223 485.664 L 533.223 483.34 L 533.223 481.017 L 533.223 478.693 L 533.223 476.369 L 533.223 474.045 L 533.223 471.722 L 533.223 469.398 L 533.223 467.074 L 533.223 464.75 L 533.223 462.427 L 533.223 460.103 L 533.223 457.779 L 533.223 455.455 L 533.223 453.132 L 533.223 450.808 L 533.223 448.484 L 533.223 446.16 L 533.223 443.837 L 533.223 441.513 L 533.223 439.189 L 533.223 436.865 L 533.223 434.542 L 533.223 432.218 L 533.223 429.894 L 533.223 427.57 L 533.223 425.247 L 533.223 422.923 L 533.223 420.599 L 533.223 418.275 L 533.223 415.952 L 533.223 413.628 L 533.223 411.304 L 533.223 408.98 L 533.223 406.657 L 533.223 404.333 L 533.223 402.009 L 533.223 399.685 L 533.223 397.362 L 533.223 395.038 L 533.223 392.714 L 533.223 390.39 L 533.223 388.067 L 533.223 385.743 L 533.223 383.419 L 533.223 381.095 L 533.223 378.772 L 533.223 376.448 L 533.223 374.124 L 533.223 371.8 L 533.223 369.477 L 533.223 367.153 L 533.223 364.829 L 533.223 362.505 L 533.223 360.182 L 533.223 357.858 L 533.223 355.534 L 533.223 353.21 L 533.223 350.887 L 533.223 348.563 L 533.223 346.239 L 533.223 343.915 L 533.223 341.592 L 533.223 339.268 L 533.223 336.944 L 533.223 334.62 L 533.223 332.297 L 533.223 329.973 L 533.223 327.649 L 533.223 325.325 L 533.223 323.002 L 533.223 320.678 L 533.223 318.354 L 533.223 316.03 L 533.223 313.707 L 533.223 311.383 L 533.223 309.059 L 533.223 306.735 L 533.223 304.411 L 533.223 302.088 L 533.223 299.764 L 533.223 297.44 L 533.223 295.116 L 533.223 292.793 L 533.223 290.469 L 533.223 288.145 L 533.223 285.821 L 533.223 283.498 L 533.223 281.174 L 533.223 278.85 L 533.223 276.526 L 533.223 274.203 L 533.223 271.879 L 533.223 269.555 L 533.223 267.231 L 533.223 264.908 L 533.223 262.584 L 533.223 260.26 L 533.223 257.936 L 533.223 255.613 L 533.223 253.289 L 533.223 250.965 L 533.223 248.641 L 533.223 246.318 L 533.223 243.994 L 533.223 241.67 L 533.223 239.346 L 533.223 237.023 L 533.223 234.699 L 533.223 232.375 L 533.223 230.051 L 533.223 227.728 L 533.223 225.404 L 533.223 223.08 L 533.223 220.756 L 533.223 218.433 L 533.223 216.109 L 533.223 213.785 L 533.223 211.461 L 533.223 209.138 L 533.223 206.814 L 533.223 204.49 L 533.223 202.166 L 533.223 199.843 L 533.223 197.519 L 533.223 195.195 L 533.223 192.871 L 533.223 190.548 L 533.223 188.224 L 533.223 185.9 L 533.223 183.576 L 533.223 181.253 L 533.223 178.929 L 533.223 176.605 L 533.223 174.281 L 533.223 171.958 L 533.223 169.634 L 533.223 167.31 L 533.223 164.986 L 533.223 162.663 L 533.223 160.339 L 533.223 158.015 L 533.223 155.691 L 533.223 153.368 L 533.223 151.044 L 533.223 148.72 L 533.223 146.396 L 533.223 144.073 L 533.223 141.749 L 533.223 139.425 L 533.223 137.101 L 533.223 134.778 L 533.223 132.454 L 533.223 130.13 L 533.223 127.806 L 533.223 125.483 L 533.223 123.159 L 533.223 120.835 L 533.223 118.511 L 533.223 116.188 L 533.223 113.864 L 533.223 111.54 L 533.223 109.216 L 533.223 106.893 L 533.223 104.569 L 533.223 102.245 L 533.223 99.921 L 533.223 97.598 L 533.223 95.274 L 533.223 92.95 L 533.223 90.626 L 533.223 88.303 L 533.223 85.979 L 533.223 83.655 L 533.223 81.331 L 530.57 79.008 L 530.57 76.684 L 530.57 74.36 L 530.57 72.036 L 530.57 69.713 L 530.57 67.389 L 527.917 65.065 L 527.917 62.741 L 525.264 60.418 L 525.264 58.094 L 525.264 55.77 L 522.611 53.446 L 522.611 51.123 L 519.959 48.799 L 519.959 46.475 L 517.306 44.151 L 514.653 41.828 L 514.653 39.504 L 512 37.18 L 509.347 34.856 L 506.694 32.533 L 504.041 30.209 L 501.389 27.885 L 498.736 25.561 L 496.083 23.238 L 493.43 20.914 L 490.777 18.59 L 488.124 18.59 L 485.472 16.266 L 482.819 13.943 L 480.166 13.943 L 477.513 11.619 L 474.86 11.619 L 472.207 9.295 L 469.554 9.295 L 466.902 6.971 L 464.249 6.971 L 461.596 4.648 L 458.943 4.648 L 456.29 4.648 L 453.637 4.648 L 450.984 2.324 L 448.332 2.324 L 445.679 2.324 L 443.026 2.324 L 440.373 0 L 437.72 0 L 435.067 0 L 432.415 0 L 429.762 0 L 427.109 0 L 424.456 0 L 421.803 0 L 419.15 0 L 416.497 0 L 413.845 0 L 411.192 0 L 408.539 0 Z" fill="url(#logoGradient)"/>
</svg>
